<?xml version="1.0" encoding="UTF-8"?>
<svg id="Layer_2" data-name="Layer 2" xmlns="http://www.w3.org/2000/svg" viewBox="0 0 96.37 62.09">
  <defs>
    <style>
      .cls-1 {
        fill: #c9c9c9;
      }
    </style>
  </defs>
  <g id="Layer_1-2" data-name="Layer 1">
    <g id="_9083_-_Cruise" data-name="9083 - Cruise">
      <g>
        <path class="cls-1" d="M95.08,54.62c-2.89,0-4.43,1.57-5.62,2.83-1.1,1.13-1.95,2.01-3.77,2.01s-2.67-.88-3.74-2.01c-1.22-1.26-2.73-2.83-5.62-2.83s-4.43,1.57-5.62,2.83c-1.1,1.13-1.95,2.01-3.74,2.01s-2.67-.88-3.74-2.01c-1.22-1.26-2.73-2.83-5.62-2.83s-4.43,1.57-5.62,2.83c-1.1,1.13-1.95,2.01-3.74,2.01s-2.67-.88-3.74-2.01c-1.22-1.26-2.73-2.83-5.62-2.83s-4.43,1.57-5.62,2.83c-1.1,1.13-1.95,2.01-3.74,2.01s-2.67-.88-3.74-2.01c-1.22-1.26-2.73-2.83-5.62-2.83s-4.43,1.57-5.62,2.83c-1.1,1.13-1.95,2.01-3.74,2.01s-2.67-.88-3.74-2.01c-1.22-1.26-2.73-2.83-5.62-2.83-.72,0-1.32.6-1.32,1.32s.6,1.32,1.32,1.32c1.79,0,2.67.88,3.74,2.01,1.22,1.26,2.73,2.83,5.62,2.83s4.43-1.57,5.62-2.83c1.1-1.13,1.95-2.01,3.74-2.01s2.67.88,3.74,2.01c1.22,1.26,2.73,2.83,5.62,2.83s4.43-1.57,5.62-2.83c1.1-1.13,1.95-2.01,3.74-2.01s2.67.88,3.74,2.01c1.22,1.26,2.73,2.83,5.62,2.83s4.43-1.57,5.62-2.83c1.1-1.13,1.95-2.01,3.74-2.01s2.67.88,3.74,2.01c1.22,1.26,2.73,2.83,5.62,2.83s4.43-1.57,5.62-2.83c1.1-1.13,1.95-2.01,3.74-2.01s2.67.88,3.74,2.01c1.22,1.26,2.73,2.83,5.62,2.83s4.43-1.57,5.62-2.83c1.1-1.13,1.95-2.01,3.74-2.01.72,0,1.32-.6,1.32-1.32.03-.72-.57-1.32-1.29-1.32Z"/>
        <path class="cls-1" d="M1.29,48.22c1.79,0,2.67.88,3.74,2.01,1.22,1.26,2.73,2.83,5.62,2.83s4.43-1.57,5.62-2.83c1.1-1.13,1.95-2.01,3.74-2.01s2.67.88,3.74,2.01c1.22,1.26,2.73,2.83,5.62,2.83s4.43-1.57,5.62-2.83c1.1-1.13,1.95-2.01,3.74-2.01s2.67.88,3.74,2.01c1.22,1.26,2.73,2.83,5.62,2.83s4.43-1.57,5.62-2.83c1.1-1.13,1.95-2.01,3.74-2.01s2.67.88,3.74,2.01c1.22,1.26,2.73,2.83,5.62,2.83s4.43-1.57,5.62-2.83c1.1-1.13,1.95-2.01,3.74-2.01s2.67.88,3.74,2.01c1.22,1.26,2.73,2.83,5.62,2.83s4.43-1.57,5.62-2.83c1.1-1.13,1.95-2.01,3.74-2.01.72,0,1.32-.6,1.32-1.32s-.6-1.32-1.32-1.32c-2.89,0-4.43,1.57-5.62,2.83-1.1,1.13-1.95,2.01-3.77,2.01s-2.67-.88-3.74-2.01c-.88-.88-1.88-1.95-3.42-2.48-.63-.22-1.35-.35-2.2-.35-.47,0-.88.03-1.29.09l15.54-15.32h-18.74l-6.22,6.22c-.25.25-.57.38-.94.38H5.24v9.89c-.69-.53-1.54-.97-2.61-1.16-.41-.09-.85-.13-1.32-.13C.6,45.55,0,46.14,0,46.87c-.03.78.57,1.35,1.29,1.35Z"/>
        <polygon class="cls-1" points="60.11 11.9 23.36 11.9 21.6 17.2 64.54 17.2 60.11 11.9"/>
        <path class="cls-1" d="M70.38,28.16c.25-.25.57-.38.94-.38h6.62l-5.96-7.94H17.11v6.62c0,.72-.6,1.32-1.32,1.32h-5.27v6.62h53.65l6.22-6.25ZM27.72,31.7h-5.27c-.72,0-1.32-.6-1.32-1.32s.6-1.32,1.32-1.32h5.27c.72,0,1.32.6,1.32,1.32-.03.72-.6,1.32-1.32,1.32ZM27.72,26.43h-5.27c-.72,0-1.32-.6-1.32-1.32s.6-1.32,1.32-1.32h5.27c.72,0,1.32.6,1.32,1.32-.03.72-.6,1.32-1.32,1.32ZM38.27,31.7h-5.27c-.72,0-1.32-.6-1.32-1.32s.6-1.32,1.32-1.32h5.27c.72,0,1.32.6,1.32,1.32s-.6,1.32-1.32,1.32ZM38.27,26.43h-5.27c-.72,0-1.32-.6-1.32-1.32s.6-1.32,1.32-1.32h5.27c.72,0,1.32.6,1.32,1.32s-.6,1.32-1.32,1.32ZM48.84,31.7h-5.27c-.72,0-1.32-.6-1.32-1.32s.6-1.32,1.32-1.32h5.27c.72,0,1.32.6,1.32,1.32s-.6,1.32-1.32,1.32ZM48.84,26.43h-5.27c-.72,0-1.32-.6-1.32-1.32s.6-1.32,1.32-1.32h5.27c.72,0,1.32.6,1.32,1.32s-.6,1.32-1.32,1.32ZM59.42,31.7h-5.27c-.72,0-1.32-.6-1.32-1.32s.6-1.32,1.32-1.32h5.27c.72,0,1.32.6,1.32,1.32s-.6,1.32-1.32,1.32ZM59.42,26.43h-5.27c-.72,0-1.32-.6-1.32-1.32s.6-1.32,1.32-1.32h5.27c.72,0,1.32.6,1.32,1.32s-.6,1.32-1.32,1.32Z"/>
        <rect class="cls-1" x="26.37" y="5.27" width="7.94" height="3.99"/>
        <rect class="cls-1" x="29.01" width="2.67" height="2.67"/>
        <polygon class="cls-1" points="54.81 5.27 48.84 5.27 48.84 9.26 58.01 9.26 54.81 5.27"/>
      </g>
    </g>
  </g>
</svg>