<?xml version="1.0" encoding="UTF-8"?>
<svg id="Layer_2" data-name="Layer 2" xmlns="http://www.w3.org/2000/svg" xmlns:xlink="http://www.w3.org/1999/xlink" viewBox="0 0 76.83 76.83">
  <defs>
    <style>
      .cls-1 {
        fill: #c9c9c9;
      }

      .cls-2 {
        mask: url(#mask);
      }

      .cls-3 {
        filter: url(#luminosity-noclip);
      }
    </style>
    <filter id="luminosity-noclip" x="6.21" y="6.21" width="64.41" height="64.41" color-interpolation-filters="sRGB" filterUnits="userSpaceOnUse">
      <feFlood flood-color="#fff" result="bg"/>
      <feBlend in="SourceGraphic" in2="bg"/>
    </filter>
    <mask id="mask" x="6.21" y="6.21" width="64.41" height="64.41" maskUnits="userSpaceOnUse">
      <g class="cls-3">
        <g>
          <path d="M33.44,41.55c-.07-.07-.14-.13-.2-.19-.36-.35-.72-.7-1.08-1.05-.86-.84-1.76-1.71-2.62-2.59-.62-.63-1.38-1.1-2.4-1.5-.81-.31-1.63-.48-2.52-.49-1.42-.03-2.93-.07-4.45-.27-1.75-.23-3.24-.62-4.55-1.2-1.57-.69-2.94-1.76-4.18-3.26-1.57-1.9-2.67-3.97-3.27-6.17-.61-2.25-.66-4.26-.15-6.15.95-3.5,3.37-5.7,6.98-6.36.62-.11,1.26-.17,1.9-.17,1.23,0,2.49.2,3.84.62,2.68.82,5.06,2.3,7.08,4.39,1.29,1.34,2.2,3.03,2.8,5.17.36,1.3.59,2.69.73,4.52.02.28.04.55.06.83.05.74.1,1.44.21,2.13.19,1.25.65,2.37,1.37,3.32.09.12.19.23.29.34.87.89,1.74,1.78,2.61,2.66l1.27,1.3c.07.07.13.14.2.21l.82.87-3.83,3.92-.91-.86Z"/>
          <path d="M17.29,65.91c-.1-.01-.2-.03-.3-.04-.26-.03-.56-.07-.87-.14-1.69-.43-2.84-1.77-3.01-3.5-.21-2.15.5-4.05,2.12-5.65.46-.45.97-.82,1.41-1.14.97-.69,1.95-1.37,2.92-2.06,1-.7,2.01-1.41,3-2.12,2.12-1.5,4.25-3.29,6.7-5.62,3.57-3.38,7.3-7.07,11.75-11.6,1.14-1.16,1.87-2.6,2.15-4.27.08-.49.14-.98.19-1.5.03-.25.05-.5.08-.75.14-1.17.61-2.15,1.39-2.92.77-.75,1.53-1.51,2.29-2.27,1.03-1.02,2.09-2.08,3.14-3.1,1.89-1.84,3.82-3.69,5.68-5.49l2.24-2.16c.11-.1.25-.24.42-.35.27-.18.59-.28.91-.28.42,0,.81.16,1.09.46.51.53.56,1.34.12,1.98-.11.16-.23.28-.31.37l-3.74,3.88c1.28-1.23,3.87-3.72,3.87-3.72.1-.1.23-.23.41-.34.28-.19.59-.28.91-.28.41,0,.8.16,1.09.46.51.53.56,1.35.11,1.99-.11.16-.22.27-.31.36,0,0-2.55,2.64-2.93,3.04,1.01-.97,2.02-1.95,3.03-2.92.11-.1.25-.24.44-.36.27-.17.57-.26.88-.26.39,0,.75.14,1.03.4.54.5.62,1.34.2,2-.11.17-.22.29-.31.37l-3.75,3.89c1.28-1.24,2.57-2.47,3.85-3.71.18-.17.38-.32.6-.44.22-.12.47-.19.72-.19.38,0,.75.15,1.03.42.49.46.61,1.14.32,1.74-.11.23-.26.44-.47.65l-1.33,1.39c-1.34,1.4-2.73,2.85-4.11,4.27-1.18,1.21-2.37,2.42-3.56,3.62-1.3,1.32-2.61,2.65-3.9,3.98-.87.89-1.91,1.39-3.19,1.54l-.45.05c-.72.08-1.4.15-2.06.29-1.51.3-2.82,1.01-3.91,2.1-3.4,3.41-6.91,6.93-10.37,10.47-1.68,1.72-3.62,3.77-5.32,5.96-1.57,2.03-3.07,4.17-4.33,6l-.2.29c-.51.73-1.03,1.49-1.57,2.23-.9,1.23-2.07,2.1-3.48,2.59-.71.25-1.4.38-2.09.41h-.11s-.11-.01-.11-.01Z"/>
          <path d="M57.34,65.88c-1.94,0-3.63-.75-5.03-2.22-.47-.5-.85-1.03-1.22-1.55l-.13-.18c-.64-.9-1.28-1.8-1.92-2.7-.92-1.29-1.86-2.63-2.8-3.94-1.57-2.17-3.45-4.18-5.09-5.89-.82-.85-1.64-1.7-2.47-2.55l-1.18-1.21s-.09-.09-.14-.15l-.82-.89,3.93-3.83,1.04.98c.64.61,1.28,1.22,1.92,1.83,1.45,1.39,2.95,2.82,4.44,4.21,1.57,1.46,3.3,2.73,4.95,3.9,1.31.93,2.65,1.87,3.95,2.77l1.44,1c.74.51,1.67,1.24,2.34,2.28.87,1.36,1.26,2.81,1.14,4.29-.17,2.13-1.76,3.7-3.87,3.84-.16.01-.32.02-.47.02Z"/>
        </g>
      </g>
    </mask>
  </defs>
  <g id="Layer_1-2" data-name="Layer 1">
    <g>
      <g>
        <path class="cls-1" d="M37.18,38.45c-.77.79-1.52,1.55-2.28,2.34-.1-.1-.19-.18-.28-.27-1.23-1.21-2.47-2.4-3.69-3.62-.8-.81-1.75-1.35-2.79-1.76-.93-.36-1.9-.55-2.91-.57-1.44-.03-2.89-.08-4.33-.26-1.46-.19-2.89-.52-4.24-1.12-1.5-.66-2.72-1.69-3.76-2.94-1.41-1.71-2.47-3.6-3.05-5.74-.5-1.84-.65-3.7-.15-5.55.85-3.12,2.92-4.96,6.09-5.54,1.77-.32,3.5-.11,5.21.42,2.55.78,4.74,2.17,6.59,4.09,1.27,1.32,2.03,2.93,2.52,4.69.39,1.41.58,2.85.7,4.31.08,1.01.12,2.03.28,3.04.21,1.4.73,2.7,1.59,3.84.12.16.25.31.39.45,1.29,1.32,2.59,2.65,3.88,3.97.09.09.17.18.25.26Z"/>
        <path class="cls-1" d="M18.04,64.76c-.35-.05-.71-.07-1.06-.16-1.22-.31-2.03-1.25-2.16-2.51-.18-1.86.47-3.43,1.78-4.73.38-.38.83-.71,1.27-1.02,1.97-1.4,3.96-2.78,5.93-4.17,2.43-1.72,4.67-3.67,6.83-5.72,4-3.8,7.91-7.69,11.78-11.63,1.34-1.36,2.14-3.01,2.46-4.88.13-.76.19-1.54.28-2.31.1-.86.43-1.62,1.06-2.24,1.82-1.78,3.61-3.59,5.43-5.37,2.63-2.56,5.28-5.09,7.92-7.64.08-.08.17-.16.26-.23.19-.13.42-.11.54.02.13.13.13.35,0,.54-.07.09-.15.18-.23.26-2.67,2.76-5.33,5.53-8,8.29-.48.5-.96,1-1.45,1.5-.28.28-.37.61-.33.98.04.42.32.71.73.75.39.04.72-.06,1.01-.34,1.21-1.18,2.43-2.35,3.64-3.52,2.04-1.97,4.08-3.93,6.12-5.9.09-.09.18-.18.29-.25.2-.13.41-.12.54.02.13.13.13.36,0,.54-.07.09-.15.18-.23.26-3.12,3.24-6.24,6.48-9.37,9.72-.32.34-.47.7-.38,1.16.07.36.3.57.66.61.4.05.74-.05,1.05-.34,1.43-1.4,2.88-2.78,4.32-4.17,1.82-1.76,3.65-3.52,5.47-5.27.08-.08.17-.16.26-.22.18-.12.39-.1.52.01.13.12.14.35.02.54-.05.08-.12.14-.18.21-2.1,2.18-4.21,4.37-6.31,6.55-1.06,1.1-2.12,2.2-3.18,3.3-.26.27-.36.58-.34.95.03.47.32.77.79.81.38.03.69-.1.97-.37,1.32-1.28,2.65-2.56,3.97-3.83,1.94-1.87,3.88-3.74,5.82-5.61.11-.1.23-.19.36-.27.14-.08.3-.05.42.06.12.12.15.27.08.42-.06.13-.16.25-.26.36-1.81,1.89-3.61,3.78-5.44,5.65-2.48,2.54-4.99,5.06-7.46,7.6-.7.72-1.53,1.09-2.5,1.2-.87.1-1.75.18-2.61.35-1.73.35-3.24,1.16-4.49,2.41-3.47,3.48-6.94,6.97-10.38,10.48-1.89,1.93-3.74,3.91-5.4,6.06-1.52,1.97-2.95,4-4.37,6.05-.58.84-1.15,1.68-1.76,2.5-.75,1.02-1.72,1.77-2.93,2.19-.57.2-1.16.32-1.77.35Z"/>
        <path class="cls-1" d="M38.72,44.62c.79-.77,1.56-1.52,2.35-2.29.06.05.15.14.24.22,2.12,2.02,4.23,4.05,6.37,6.04,1.58,1.47,3.31,2.75,5.06,4,1.79,1.28,3.6,2.52,5.4,3.78.78.55,1.51,1.15,2.03,1.97.7,1.09,1.07,2.27.96,3.58-.12,1.57-1.24,2.69-2.81,2.79-1.82.11-3.36-.54-4.6-1.85-.47-.49-.86-1.06-1.25-1.61-1.58-2.21-3.13-4.44-4.73-6.64-1.56-2.15-3.36-4.1-5.19-6.01-1.21-1.26-2.43-2.51-3.65-3.76-.06-.06-.11-.12-.19-.21Z"/>
      </g>
      <path class="cls-1" d="M38.41,76.83C17.23,76.83,0,59.6,0,38.41S17.23,0,38.41,0s38.41,17.23,38.41,38.41-17.23,38.41-38.41,38.41ZM38.41,1.36C17.98,1.36,1.36,17.98,1.36,38.41s16.62,37.05,37.05,37.05,37.05-16.62,37.05-37.05S58.85,1.36,38.41,1.36Z"/>
      <g class="cls-2">
        <path class="cls-1" d="M64.9,20.11c-.25.28-.55.52-.91.68,3.46,5.01,5.5,11.08,5.5,17.62,0,17.13-13.94,31.07-31.07,31.07S7.35,55.54,7.35,38.41,21.28,7.35,38.41,7.35c7.37,0,14.15,2.58,19.49,6.89.25-.29.57-.53.95-.7-5.56-4.58-12.68-7.33-20.43-7.33C20.66,6.21,6.21,20.66,6.21,38.41s14.45,32.21,32.21,32.21,32.21-14.45,32.21-32.21c0-6.79-2.12-13.1-5.72-18.3Z"/>
      </g>
    </g>
  </g>
</svg>