<?xml version="1.0" encoding="UTF-8"?>
<svg id="Layer_2" data-name="Layer 2" xmlns="http://www.w3.org/2000/svg" viewBox="0 0 54.35 80">
  <defs>
    <style>
      .cls-1 {
        fill: #c9c9c9;
      }
    </style>
  </defs>
  <g id="Layer_1-2" data-name="Layer 1">
    <g>
      <path class="cls-1" d="M46.08,80H8.27c-2.88,0-5.5-1.46-7.02-3.9-1.52-2.44-1.67-5.44-.39-8.02L20.24,28.83V11.62c-.31-.41-.68-1.04-.68-1.69,0-1.46,1.19-2.65,2.65-2.65h11.76c1.46,0,2.65,1.19,2.65,2.65,0,.65-.37,1.28-.68,1.69v17.33l17.68,39.4c1.15,2.57.93,5.51-.6,7.88-1.53,2.36-4.12,3.77-6.94,3.77ZM21.83,9.88c.05.13.23.4.38.57l.3.32v.44s0,18.15,0,18.15l-.12.24L2.89,69.08c-.92,1.87-.82,4.05.29,5.82,1.1,1.77,3.01,2.83,5.1,2.83h37.81c2.04,0,3.93-1.02,5.04-2.74,1.11-1.72,1.27-3.85.44-5.72l-17.88-39.84V10.77l.3-.32c.15-.17.33-.44.38-.57-.02-.19-.18-.34-.38-.34h-11.76c-.2,0-.36.15-.38.34Z"/>
      <path class="cls-1" d="M50.49,70.4l-12.35-27.56h-20.7l-12.91,27.5c-1.1,2.35.61,5.05,3.21,5.05h39.52c2.57,0,4.29-2.65,3.23-4.99ZM23.7,58.76c-.48.49-1.27.49-1.76,0-.48-.48-.48-1.27,0-1.76.49-.48,1.27-.48,1.76,0,.49.49.49,1.27,0,1.76ZM24.91,52.49c-1.15,1.15-3.01,1.15-4.16,0-1.15-1.15-1.15-3.01,0-4.16,1.15-1.15,3.01-1.15,4.16,0,1.15,1.15,1.15,3.01,0,4.16ZM31.08,55.56c-.81.81-2.13.81-2.94,0-.81-.81-.81-2.13,0-2.94.81-.81,2.13-.81,2.94,0,.81.81.81,2.13,0,2.94Z"/>
      <circle class="cls-1" cx="23.59" cy="36.51" r="2.35"/>
      <circle class="cls-1" cx="22.18" cy="2.65" r="2.53"/>
      <circle class="cls-1" cx="27.18" cy="1.54" r="1.54"/>
      <circle class="cls-1" cx="25.64" cy="5.18" r=".92"/>
      <circle class="cls-1" cx="21.12" cy="40.68" r="1.25"/>
    </g>
  </g>
</svg>