<?xml version="1.0" encoding="UTF-8"?>
<svg id="Layer_2" data-name="Layer 2" xmlns="http://www.w3.org/2000/svg" viewBox="0 0 67.48 73.58">
  <defs>
    <style>
      .cls-1 {
        fill: #c9c9c9;
      }
    </style>
  </defs>
  <g id="Layer_1-2" data-name="Layer 1">
    <path class="cls-1" d="M64.83,23.65c-1.7-4.02-4.13-7.63-7.23-10.72-3-3-6.49-5.38-10.36-7.07l1.92-5.86L15.94,44.6l12.75-2.66-6.11,18.66c-2.76-1.29-5.25-3.04-7.42-5.22-2.42-2.42-4.31-5.23-5.64-8.36-1.37-3.24-2.06-6.68-2.06-10.23s.69-6.99,2.06-10.23c1.32-3.13,3.22-5.94,5.64-8.36s5.23-4.31,8.36-5.64c3.24-1.37,6.68-2.06,10.23-2.06,1.49,0,2.96.12,4.4.36l4.86-6.53c-2.99-.86-6.1-1.29-9.26-1.29-4.55,0-8.97.89-13.13,2.65-4.02,1.7-7.63,4.13-10.72,7.23-3.1,3.1-5.53,6.71-7.23,10.72-1.76,4.16-2.65,8.58-2.65,13.13s.89,8.97,2.65,13.13c1.7,4.02,4.13,7.63,7.23,10.72,3,3,6.49,5.38,10.36,7.07l-1.92,5.86L51.55,28.98l-12.75,2.66,6.11-18.66c2.76,1.29,5.25,3.05,7.42,5.22,2.42,2.42,4.31,5.23,5.64,8.36,1.37,3.24,2.06,6.68,2.06,10.23s-.69,6.99-2.06,10.23c-1.32,3.13-3.22,5.94-5.64,8.36s-5.23,4.31-8.36,5.64c-3.24,1.37-6.68,2.06-10.23,2.06-1.49,0-2.96-.12-4.4-.36l-4.86,6.53c2.99.85,6.1,1.29,9.26,1.29,4.55,0,8.97-.89,13.13-2.65,4.02-1.7,7.63-4.13,10.72-7.23,3.1-3.1,5.53-6.71,7.23-10.72,1.76-4.16,2.65-8.58,2.65-13.13s-.89-8.97-2.65-13.13Z"/>
  </g>
</svg>