<?xml version="1.0" encoding="UTF-8"?>
<svg id="Layer_2" data-name="Layer 2" xmlns="http://www.w3.org/2000/svg" viewBox="0 0 91.12 65.09">
  <defs>
    <style>
      .cls-1 {
        fill: #c9c9c9;
      }
    </style>
  </defs>
  <g id="Layer_1-2" data-name="Layer 1">
    <g>
      <path class="cls-1" d="M16.19,24.89l1.26,1.61.14.18.18.23c.91-4.84,2.95-9.28,5.86-13.03-.97,1.86-1.38,3.81-1.22,5.76-1.98,2.29-3.49,4.83-4.43,7.54l.59.76c.94-2.43,2.31-4.75,4.06-6.88.63,2.74,2.41,5.42,5.37,7.71-1.25,2.42-2.25,4.9-2.98,7.37l1.66,2.12c.68-2.77,1.67-5.58,2.95-8.35,3.29,2.12,7.31,3.54,11.59,4.27-.6,3.92-1.04,7.83-1.27,11.49-.32-.05-.64-.12-.96-.18.32.12.63.24.95.37.87.33,1.75.64,2.63.95,1.03.36,2.06.7,3.09,1.02,4.25.2,8.56-.15,12.63-1.06.08,1.38.12,2.72.12,4,0,.02,0,.04,0,.06.87.14,1.73.25,2.59.35.01-.36.02-.71.02-1.08,0-1.28-.05-2.62-.15-3.99,2.67-.78,5.2-1.81,7.5-3.11,1.94-1.09,3.6-2.3,4.97-3.59.2,1.32.31,2.63.3,3.91,0,2.05-.28,3.93-.81,5.62-1,.94-2.16,1.83-3.46,2.66.25,0,.52,0,.77-.01.17,0,.33-.02.51-.03.63-.48,1.23-.98,1.78-1.49-.19.49-.41.96-.64,1.41,0,0,.02,0,.02,0,.17-.01.34-.04.51-.05.76-.08,1.5-.17,2.21-.3,3.68-5.27,5.84-11.67,5.84-18.57C80.36,14.6,65.76,0,47.82,0c-6.1,0-11.81,1.69-16.69,4.62l.61.05-4.84,2.97c-5.23,4.4-9.06,10.41-10.72,17.26ZM25.11,12.11c.69-.77,1.42-1.5,2.18-2.2,1.93-1.27,4.17-2.17,6.67-2.65-1.24,1.53-1.79,3.22-1.65,4.91-3.44,1.68-6.47,3.85-8.9,6.38-.18-2.19.39-4.38,1.7-6.43ZM28.78,27.32c-2.84-2.21-4.55-4.77-5.15-7.41,2.41-2.66,5.41-5,8.82-6.88.39,1.68,1.48,3.31,3.29,4.72-2.69,2.91-5.05,6.17-6.95,9.56ZM41.48,32.52c-4.11-.7-7.98-2.07-11.14-4.1,1.75-3.51,3.92-6.89,6.39-9.96,2.01,1.29,4.47,2.17,7.09,2.61-.9,3.64-1.7,7.54-2.34,11.45ZM45.18,21.26c2.67.3,5.44.16,8.03-.42,1.17,3.59,2.2,7.44,3.02,11.32-4.06.91-8.42,1.13-12.61.66.43-3.94.96-7.88,1.56-11.56ZM42.58,46.05c.16-3.67.46-7.6.86-11.55,4.36.49,8.9.26,13.12-.69.77,3.89,1.32,7.77,1.61,11.42-5.02,1.13-10.41,1.39-15.59.82ZM54.51,20.5c1.36-.4,2.65-.93,3.82-1.58.99-.56,1.83-1.17,2.53-1.83,2.87,2.76,5.37,5.89,7.4,9.18-1.1,1.04-2.43,2-3.98,2.88-1.84,1.04-3.86,1.87-6,2.49-1.03-3.83-2.3-7.61-3.77-11.13ZM70.66,12.26c.76,1.22,1.27,2.49,1.51,3.77-2.41-2.28-5.4-4.13-8.81-5.46-.32-1.68-1.34-3.33-3.07-4.76,1.39.14,2.69.46,3.89.93,2.41,1.53,4.59,3.39,6.49,5.52ZM72.33,17.39c.12,2.64-.86,5.3-2.91,7.67-2.13-3.17-4.79-6.15-7.82-8.74,1.3-1.51,1.93-3.2,1.85-4.88,3.44,1.52,6.45,3.54,8.87,5.96ZM68.13,41.5c-2.27,1.28-4.78,2.31-7.42,3.08-.36-3.63-1.06-7.48-2.01-11.32,2.22-.65,4.33-1.51,6.24-2.59,1.61-.91,3-1.91,4.15-2.99,1.88,3.34,3.25,6.83,3.97,10.27-1.37,1.28-3.01,2.48-4.92,3.55ZM70.3,26.42c2.13-2.47,3.15-5.23,3.03-7.98,1.82,2.03,3.23,4.31,4.16,6.75.25.99.44,1.99.59,3.01-.17,2.86-1.37,5.69-3.59,8.26-.75-3.4-2.2-6.8-4.19-10.04ZM75.04,46.44c-.25.34-.51.68-.8,1.01.55-1.72.85-3.62.85-5.67,0-1.29-.11-2.59-.32-3.89,2.03-2.35,3.21-4.93,3.54-7.55.05.73.09,1.46.09,2.2,0,5-1.22,9.72-3.35,13.89ZM76.18,21.14c-.82-1.48-1.83-2.86-3.02-4.13-.19-1.02-.56-2.04-1.07-3.03,1.67,2.18,3.04,4.58,4.09,7.16ZM48.99,7.79s.06.04.08.06c3.6-1.54,7-2.22,10.03-2.12,1.57,1.29,2.5,2.78,2.78,4.3-3.78-1.26-8.02-1.88-12.52-1.73,0,.03,0,.05,0,.08,4.52.1,8.79.96,12.6,2.43.07,1.52-.49,3.05-1.68,4.42-3.35-2.67-7.12-4.87-11.1-6.38-.02.02-.04.05-.07.07,3.77,1.74,7.33,4.15,10.51,7-.64.6-1.4,1.15-2.29,1.66-1.06.6-2.23,1.07-3.46,1.43-1.62-3.69-3.44-7.04-5.36-9.76-.04.01-.09.02-.12.03,1.54,2.83,3,6.27,4.3,10.04-2.34.52-4.85.65-7.26.38.67-3.88,1.41-7.43,2.2-10.38-.04,0-.09-.01-.13-.02-1.18,2.89-2.29,6.4-3.3,10.23-2.37-.4-4.59-1.19-6.42-2.36,2.74-3.19,5.8-5.98,9.03-8.11,0,0-.02-.02-.04-.03-.02-.01-.04-.03-.06-.04-3.53,1.93-6.86,4.53-9.84,7.55-1.64-1.27-2.62-2.75-2.97-4.27,3.78-1.86,8.02-3.16,12.49-3.73,0-.03-.01-.06-.01-.08-4.52.31-8.79,1.37-12.6,3.02-.13-1.52.38-3.06,1.5-4.44,3.41-.45,7.23-.17,11.27.95.02-.03.04-.05.07-.08-3.84-1.34-7.46-1.83-10.7-1.57.68-.67,1.5-1.29,2.49-1.85.97-.54,2.02-.99,3.13-1.34,1.71.6,3.63,2.06,5.67,4.42.04-.01.08-.02.13-.04-1.65-2.46-3.22-4.02-4.62-4.71,2.32-.56,4.83-.73,7.25-.5-.56.82-1.19,2.53-1.87,5.15.04,0,.09.01.13.02,1.07-2.57,2.08-4.23,2.98-5.02,2.59.4,5.02,1.25,6.96,2.56.37-.01.73-.01,1.08,0-2.15-1.44-4.84-2.39-7.7-2.83.01,0,.02,0,.03-.01,3.87.48,7.53,1.68,10.81,3.47-3.69-1.11-8.33-.5-13.42,2.1ZM45.6,2.06c-1.16.1-2.31.27-3.42.54-.08-.03-.15-.04-.23-.06,1.19-.23,2.41-.39,3.65-.48ZM40.4,2.89c.16.02.32.04.48.08-1.23.38-2.39.87-3.46,1.48-1.09.62-2.01,1.3-2.76,2.04-1.9.27-3.64.83-5.2,1.63,3.21-2.42,6.92-4.22,10.94-5.22Z"/>
      <path class="cls-1" d="M58.05,61.35c.89-.85,1.62-2.19,2.12-4.01-.74-.11-1.5-.24-2.25-.37-.69-.12-1.38-.24-2.08-.38-4.33.74-8.86.86-13.25.38-.08-1.14-.12-2.44-.14-3.88-.9-.3-1.8-.61-2.71-.93.02,1.66.09,3.15.22,4.45-5.04-.86-9.78-2.54-13.66-5.03-.43-1.63-.66-3.46-.66-5.5-.31-.16-.61-.32-.92-.48l-1.03-.1c.06,1.72.29,3.31.7,4.73-1.56-1.21-2.84-2.52-3.85-3.88-.21-.4-.4-.81-.59-1.22l-.24-.02-.23-.02-1.78-.17c4.88,11.83,16.53,20.18,30.1,20.18,7.61,0,14.6-2.63,20.15-7.02-1-.04-2.02-.11-3.05-.2-2.12,1.43-4.42,2.6-6.87,3.47ZM57.88,57.18c-.43,2.31-1.1,3.93-1.98,4.82-3.95.89-8.19,1.1-12.27.64-.43-.83-.76-2.39-.97-4.67,5.06.56,10.32.3,15.21-.8ZM40.09,57.61c.31,2.29.81,3.88,1.46,4.74-.86-.15-1.71-.33-2.54-.54-3.86-1.17-7.4-3.07-10.45-5.56-.78-1.02-1.43-2.22-1.91-3.6,3.82,2.45,8.48,4.11,13.44,4.95ZM21.71,48.42c.86,1.01,1.87,1.99,3.06,2.91.38,1.03.87,1.96,1.43,2.8-1.71-1.71-3.22-3.63-4.49-5.71Z"/>
      <path class="cls-1" d="M87.99,36.33l1.07-1.92,1.43-2.57-9.78-6.25s0,0,0,0c1.11,2.4,1.89,5.2,2.43,7.83,0,0,0,0,0,.02,0,0,0,0,0,0,1.02,5,1.19,9.39,1.19,9.39l1.82-3.25c1.53,5.56-.84,10.05-6.82,12.28-.83.31-1.74.58-2.69.81-1.26.3-2.56.54-3.89.74-.77.11-1.55.21-2.34.29-.04,0-.08.01-.12.01-.17.02-.34.03-.51.05-.96.08-1.95.13-2.94.16-.66.02-1.32.03-1.98.03-1.33,0-2.68-.07-4.06-.18-.82-.06-1.66-.15-2.5-.25-5.01-.6-10.32-1.87-15.84-3.88-.88-.33-1.78-.67-2.67-1.03-1.53-.62-3.06-1.28-4.61-2.01l-3.57.16c2.65,1.32,5.38,2.49,8.14,3.54.9.34,1.79.67,2.7.98,5.24,1.82,10.57,3.16,15.7,3.99.8.13,1.61.26,2.4.36.64.08,1.27.15,1.9.21,1.59.17,3.16.3,4.69.36.99.04,1.96.06,2.92.06,3.72-.01,7.18-.36,10.21-1.08,1.07-.25,2.07-.56,2.99-.91,8.75-3.26,10-10.15,4.74-17.96Z"/>
      <path class="cls-1" d="M18.69,43.04l.43.04,1.37.13,3.24.31,1.59.15h0l.44.04,2.89.28-.5-.64-.83-1.06-1.18-1.5-1.75-2.23-.27-.34-6.18-7.89-.1-.13-.45-.57-.06-.08-.06-.07-.75-.95-.59,3.9-.34,2.27h0c-.09-.07-.17-.14-.26-.21-.53-.43-1.06-.86-1.55-1.29C2.79,23.6,1.44,14.09,11.78,10.24c.83-.31,1.74-.58,2.69-.81,2.26-.53,4.8-.81,7.53-.87.88-.65,2.13-1.53,3.57-2.42-5.49-.43-10.53-.21-14.72.78-1.07.25-2.08.55-3.01.9C-4.63,12.48-1.82,24.52,13.36,36.1c.59.45,1.2.9,1.83,1.34h0s-.33,2.17-.33,2.17l-.45,3.01,2.56.25,1.72.17h0Z"/>
    </g>
  </g>
</svg>