<?xml version="1.0" encoding="UTF-8"?>
<svg id="Layer_2" data-name="Layer 2" xmlns="http://www.w3.org/2000/svg" viewBox="0 0 80.08 76.46">
  <defs>
    <style>
      .cls-1 {
        fill: #c9c9c9;
      }
    </style>
  </defs>
  <g id="Layer_1-2" data-name="Layer 1">
    <g>
      <path class="cls-1" d="M4.06,45.55h8.62s0,0,0,0c.36,1.36.87,2.8,1.49,4.2h3.81v-10.4c0-.25.21-.47.47-.47h.57c-.04-.48-.05-.96-.05-1.44,0-11,8.53-20.03,19.33-20.81v5.75c-.41.16-.8.37-1.16.67-1.63,1.32-2.04,3.59-1.08,5.36l-2.21,2.24c-.2.2-.24.51-.13.76l2.27,4.81c.11.24.29.37.6.39.27,0,.49-.15.6-.37l.29-.6c.05-.12.08-.25.05-.37l-.48-3.53,1.25-1.36c.49.2,1.01.29,1.55.29.45,0,.92-.07,1.36-.23l1.24,1.43-.35,3.31c-.01.12,0,.24.05.35l.35.72c.11.24.35.39.6.39s.49-.15.6-.37l2.25-4.76c.12-.25.07-.55-.12-.75l-2.23-2.33c.35-.63.52-1.33.52-2.04,0-.95-.32-1.91-.96-2.69-.49-.6-1.11-1.04-1.79-1.29v-5.75c10.79.77,19.33,9.81,19.33,20.81,0,.48-.01.96-.05,1.44h.57s.05,0,.08.01c.21.04.39.23.39.45v10.4h4.27c.6-1.36,1.12-2.81,1.48-4.2,0,0,0,0,0,0h8.18c1.43,0,2.6-1.16,2.6-2.59v-9.12c0-1.43-1.17-2.6-2.6-2.6h-8.09c-.62-2.46-1.58-4.84-2.86-7.08l5.79-5.68c1.01-.99,1.03-2.61.04-3.61l-6.43-6.58c-.48-.49-1.12-.76-1.8-.77-.67,0-1.33.25-1.82.73l-5.82,5.67c-2.39-1.45-4.96-2.52-7.65-3.18V3.46c0-1.91-1.54-3.46-3.44-3.46h-7.43c-1.9,0-3.44,1.55-3.44,3.46v7.36c-2.56.68-4.98,1.72-7.21,3.1l-5.66-5.67c-1.14-1.14-2.98-1.14-4.12,0l-6,6c-.55.55-.85,1.28-.85,2.06s.3,1.51.85,2.06l5.77,5.76c-1.29,2.23-2.25,4.62-2.88,7.11H4.06c-1.43,0-2.6,1.16-2.6,2.59v9.12c0,1.43,1.17,2.6,2.6,2.6Z"/>
      <polygon class="cls-1" points="50.92 39.81 50.92 49.66 60.77 49.66 60.77 40.52 60.77 39.81 60.58 39.81 57.16 39.81 57.16 43.44 54.52 43.44 54.52 39.81 50.92 39.81"/>
      <polygon class="cls-1" points="19.11 39.81 18.92 39.81 18.92 40.44 18.92 49.66 28.77 49.66 28.77 39.81 25.16 39.81 25.16 43.44 22.52 43.44 22.52 39.81 19.11 39.81"/>
      <polygon class="cls-1" points="34.92 39.81 34.92 49.66 44.77 49.66 44.77 39.81 41.16 39.81 41.16 43.44 38.52 43.44 38.52 39.81 34.92 39.81"/>
      <path class="cls-1" d="M11.27,71.48h-.67v4.32c0,.37.31.67.67.67h57.53c.37,0,.67-.29.67-.67v-4.32H11.27Z"/>
      <path class="cls-1" d="M70.14,50.68H9.93c-5.48,0-9.93,4.45-9.93,9.93s4.45,9.93,9.93,9.93h60.21c5.48,0,9.93-4.45,9.93-9.93s-4.45-9.93-9.93-9.93ZM66.88,64.45c-2.12,0-3.84-1.72-3.84-3.84s1.72-3.84,3.84-3.84,3.85,1.72,3.85,3.84-1.73,3.84-3.85,3.84ZM57.4,60.61c0,2.12-1.73,3.84-3.85,3.84s-3.84-1.72-3.84-3.84,1.72-3.84,3.84-3.84,3.85,1.72,3.85,3.84ZM44.07,60.61c0,2.12-1.73,3.84-3.85,3.84s-3.84-1.72-3.84-3.84,1.72-3.84,3.84-3.84,3.85,1.72,3.85,3.84ZM30.73,60.61c0,2.12-1.73,3.84-3.85,3.84s-3.84-1.72-3.84-3.84,1.72-3.84,3.84-3.84,3.85,1.72,3.85,3.84ZM13.55,56.77c2.12,0,3.85,1.72,3.85,3.84s-1.73,3.84-3.85,3.84-3.84-1.72-3.84-3.84,1.72-3.84,3.84-3.84Z"/>
    </g>
  </g>
</svg>