<?xml version="1.0" encoding="UTF-8"?>
<svg id="Layer_2" data-name="Layer 2" xmlns="http://www.w3.org/2000/svg" viewBox="0 0 92.43 80">
  <defs>
    <style>
      .cls-1 {
        fill: #c9c9c9;
      }
    </style>
  </defs>
  <g id="Layer_1-2" data-name="Layer 1">
    <path class="cls-1" d="M81.35,77.38c.16.08.33.05.5.05,2.64,0,5.27,0,7.91.01.23,0,.46,0,.7,0,.08,0,.17.02.25.02.07.32.09,1.89.02,2.51-.07,0-.16.03-.23.03-.85-.06-1.71-.04-2.56-.02-.43,0-.87.01-1.3.01-26.92,0-53.84,0-80.76,0-1.43,0-2.87-.01-4.3-.01-.39,0-.78.02-1.17.02-.11,0-.23,0-.33-.01-.07-.33-.08-1.87-.03-2.44.09-.11.21-.07.32-.07.84,0,1.68,0,2.52,0,1.14,0,2.29,0,3.43-.01.14,0,.28-.01.45-.02.01-.12.03-.22.03-.31,0-.61,0-1.22.01-1.83,0-.14.01-.29.01-.4.13-.13.27-.11.39-.11.77,0,1.54,0,2.3,0,.24,0,.49,0,.71,0,.12-.14.09-.27.09-.4.01-.78.02-1.56.03-2.35,0-.14.01-.28.02-.45.11-.01.21-.03.31-.04.48,0,.96,0,1.43-.02.13,0,.26.02.4-.09,0-12.48,0-24.98,0-37.48,0-.05-.02-.11-.04-.19-.28-.01-.55-.02-.84-.04-.02-.09-.05-.17-.05-.25,0-.29,0-.58,0-.87,0-.1-.01-.2-.02-.32-.13,0-.25-.02-.36-.02-2.8,0-5.59,0-8.39,0-.07,0-.15,0-.22,0-.14,0-.25-.05-.35-.15-.59-.64-1.28-1.17-1.9-1.78-.17-.17-.24-.33-.24-.57.01-2.23.01-4.46.01-6.69,0-.29,0-.58,0-.87,0-.11.03-.22.05-.33.24-.07.46-.05.68-.04.19,0,.33-.07.45-.21.07-.09.15-.18.22-.27,3.4-4.16,6.81-8.32,10.21-12.48,1.53-1.72,2.94-3.54,4.42-5.31.1-.12.2-.25.3-.38-.06-.11-.11-.21-.16-.31-.61-1.18.13-2.58,1.38-2.84,1.25-.26,2.4.7,2.44,1.76,0,.16.03.31.05.49.14.05.27.11.41.15,1.86.58,3.73,1.17,5.59,1.75.26.08.52.19.77.28.08.03.16.07.24.09,1.21.3,2.38.73,3.56,1.11,2.43.78,4.85,1.57,7.27,2.35.21.07.41.15.61.22.29.09.58.18.87.26.42.12.84.22,1.25.36.77.25,1.54.51,2.3.79,1.03.38,2.11.63,3.15.98,1.32.45,2.64.88,3.95,1.32.16.05.33.1.5.14.27.07.54.12.8.21.61.19,1.21.4,1.81.6.81.27,1.62.54,2.43.82.29.1.57.21.87.25.17.02.33.09.5.15.57.21,1.14.41,1.73.58.72.2,1.44.44,2.16.67,1.2.38,2.42.72,3.6,1.15.98.36,2,.57,2.99.9.65.21,1.28.46,1.92.68.31.11.63.2.95.29.22.07.45.12.67.19,1.98.65,3.96,1.3,5.94,1.95.16.05.34.08.5.13.28.08.56.14.84.23,1.26.42,2.52.85,3.79,1.28.41.14.83.26,1.24.39.07.02.14.04.2.08.3.15.61.26.95.31.16.02.31.08.46.13,1.4.47,2.8.94,4.2,1.41.44.15.9.23,1.36.22.49,0,.99,0,1.48,0,.11,0,.22.01.31.02.03.04.05.05.05.06,0,.01,0,.03,0,.04,0,1.19.01,2.38.01,3.56,0,.06-.01.11-.02.19-.05.02-.1.05-.16.05-.9,0-1.8,0-2.69,0-.06,0-.11-.02-.19-.04-.01-.21-.03-.4-.04-.63-.09-.02-.17-.04-.25-.04-.43-.02-.87-.03-1.3-.04-2.56-.04-5.13-.08-7.69-.12-3.53-.06-7.07-.11-10.6-.19-3.64-.08-7.27-.18-10.91-.28-.34,0-.66.04-.96.21-.15.09-.31.16-.48.24-.07.68.01,1.36-.05,2.05-.24.08-.47.02-.69.03-.23,0-.46-.05-.71,0-.01.09-.03.17-.03.25,0,.09,0,.17,0,.26,0,5.56,0,11.13,0,16.69,0,.17-.03.35.05.54,9.46,2.3,18.95,4.58,28.41,6.88.05.36.07,3.83.02,4.4-.09.03-.19.08-.3.11-.74.2-1.48.4-2.22.59-.1.03-.19.06-.29.1,0,.08-.02.15-.02.22,0,5.81,0,11.62.01,17.43,0,.02.03.05.04.08ZM31.62,77.37c.06-.17.03-.36.03-.55,0-6.98,0-13.97,0-20.95,0-.1,0-.2,0-.3,0-.08-.03-.16-.04-.27-.16,0-.31,0-.45,0-.3,0-.61,0-.91,0-.13,0-.27-.02-.38-.08-.33-.18-.57-.44-.56-.86,0-.1,0-.2,0-.3.01-1.26.02-2.52.04-3.78,0-.1.02-.19.04-.29.23-.1.45-.19.66-.28.92-.42,1.85-.84,2.77-1.25.12-.05.24-.11.36-.14.38-.11.73-.28,1.08-.45,1.41-.67,2.83-1.33,4.3-1.86.1-.03.19-.08.28-.12.92-.43,1.83-.86,2.75-1.28.22-.1.46-.18.68-.28.23-.1.45-.09.68-.03.56.15,1.12.3,1.68.45.83.21,1.64.46,2.49.59.34.05.68.15.99.32.12.07.27.09.42.11.28.06.57.09.85.16.32.07.64.17.96.25.49.13.98.26,1.47.38.29.07.58.15.9.15.07-.18.04-.35.04-.52,0-5.27,0-10.55.01-15.82,0-.1,0-.2,0-.3,0-.08-.02-.17-.03-.27-.14,0-.25-.02-.36-.02-.32,0-.64,0-.96,0-.08,0-.16-.02-.26-.04-.04-.66.03-1.29-.01-1.94-.14-.05-.26-.09-.38-.12-.37-.1-.71-.25-.96-.56-.1-.13-.24-.15-.39-.15-.54-.01-1.07-.04-1.61-.05-3.19-.06-6.37-.11-9.56-.18-3.91-.08-7.82-.16-11.73-.24-.1,0-.19.01-.31.02-.04.48-.02.94-.02,1.4,0,.48,0,.96,0,1.43,0,.46,0,.93,0,1.39,0,.47.02.95-.03,1.43-.5.12-1-.02-1.49.1-.08.51.04,1.02-.06,1.52-.33.06-.65-.07-.98.02-.05.18-.03.35-.03.53.01,12.14.02,24.28.03,36.42,0,.12,0,.23,0,.35,0,.08.03.16.05.26.7.05,1.38-.02,2.07.04,0,.17.02.31.02.45.01.81.02,1.62.03,2.43,0,.12-.03.26.11.39.11,0,.26,0,.4,0,.94,0,1.88,0,2.83,0,.12,0,.26-.04.39.1,0,.13,0,.29,0,.45,0,.61,0,1.22,0,1.83,0,.11.02.22.04.32.43.06,1.72.06,2.08,0ZM76.88,21.7s0-.05,0-.07c-.02-.01-.05-.03-.08-.04-1.54-.5-3.09-.99-4.63-1.49-.25-.08-.5-.15-.75-.23-.25-.07-.5-.14-.75-.23-.95-.32-1.89-.64-2.84-.96-.11-.04-.22-.06-.34-.09-.36-.11-.72-.21-1.08-.33-.36-.12-.7-.28-1.06-.38-.61-.17-1.24-.28-1.82-.57-.05-.03-.11-.03-.17-.05-.95-.3-1.91-.58-2.86-.89-2.74-.87-5.49-1.76-8.23-2.63-.45-.14-.93-.22-1.38-.38-.62-.23-1.27-.39-1.87-.7-.11-.06-.25-.09-.37-.11-.35-.05-.67-.17-1-.27-1.16-.37-2.29-.81-3.48-1.1-.13-.03-.24-.09-.37-.13-.31-.11-.62-.24-.95-.28-.11-.01-.22-.06-.33-.09-.29-.09-.57-.2-.87-.28-.99-.27-1.93-.69-2.93-.96-.92-.26-1.81-.6-2.72-.9-1-.33-2.01-.65-3.02-.97-.08-.03-.17-.04-.25-.07-.17-.05-.34-.07-.5-.14-.47-.21-.95-.34-1.44-.48-.25-.07-.5-.14-.75-.22-.74-.24-1.48-.49-2.22-.74-.74-.25-1.49-.48-2.23-.74-.74-.26-1.5-.42-2.23-.71-.04-.02-.09-.01-.13-.03-.26-.08-.53-.15-.79-.24-.3-.1-.6-.23-.9-.31-.5-.14-.99-.32-1.47-.53-.08-.03-.16-.04-.25-.07-.16.22-.31.43-.46.64.15.45.29.87.43,1.3.38,1.12.74,2.25,1.13,3.37.75,2.17,1.52,4.34,2.28,6.52.31.89.52,1.81.94,2.66.07.14.11.3.15.45.07.24.13.47.2.71.03.09.08.18.12.27.43,0,.83,0,1.23,0,.1,0,.19.03.28.04.06.38-.02.75.05,1.11.16.06.32.04.48.05,1.68.04,3.36.08,5.04.12,1.26.03,2.52.06,3.78.1,2.69.07,5.39.15,8.08.22,1.72.04,3.45.08,5.17.12,1.22.03,2.43.06,3.65.09,2.74.07,5.47.15,8.21.22,1.71.04,3.42.08,5.13.12,1.2.03,2.4.06,3.61.09,2.43.07,4.86.13,7.3.2.08,0,.16-.02.24-.03ZM16.12,4.95c-.17.06-.23.19-.32.3-2.99,3.6-5.98,7.2-8.96,10.8-1.36,1.64-2.71,3.28-4.07,4.93-.17.2-.32.41-.47.63-.05.06-.06.15-.11.27.82.03,1.6.08,2.38,0,.2-.02.34-.15.49-.26.24-.19.46-.39.7-.58.68-.54,1.37-1.08,2.05-1.61,1.41-1.09,2.82-2.17,4.24-3.26.13-.1.25-.2.37-.3.18-.15.32-.33.39-.56.06-.21.14-.41.2-.62.58-1.81,1.15-3.61,1.73-5.42.39-1.21.81-2.42,1.21-3.62.07-.22.16-.43.17-.68ZM42.97,48.18c.1.03.21.06.32.09,1.49.31,2.97.64,4.46.93,1.62.31,3.21.74,4.84,1.01.7.12,1.39.29,2.08.45,1.24.28,2.48.58,3.72.86,1,.23,2.01.42,3.01.65,2,.48,3.99.98,5.99,1.47,1.46.36,2.93.7,4.39,1.05.48.12.95.25,1.43.37,1.37.35,2.75.69,4.13,1.04.55.14,1.1.26,1.67.27.62.02,1.24.03,1.87.05.16,0,.31.01.49.02,0,.32.01.62.02.93.24.03.45.05.67-.03.05-.44.04-.87.01-1.31-.09-.03-.17-.07-.25-.09-12.94-3.1-25.88-6.22-38.82-9.33-.07.34-.07,1.09-.02,1.56ZM16.49,29.22c.06.01.11.03.15.03,1.13.02,2.26.03,3.39.04.07,0,.14-.02.23-.04,0-.14.02-.27.02-.4,0-2.35.01-4.69.01-7.04,0-.13.02-.26-.09-.37-.04,0-.08-.02-.12-.02-1.14,0-2.29-.01-3.43-.01-.05,0-.11.03-.15.04-.06.41-.06,7.36,0,7.77ZM21.06,29.25c.07.02.11.03.15.03,1.06,0,2.11.01,3.17.01.05,0,.11-.03.17-.04,0-.14.02-.27.02-.4,0-.54,0-1.07,0-1.61,0-1.78-.02-3.56-.03-5.34,0-.15.02-.31-.04-.45-.05-.02-.08-.04-.1-.04-.98,0-1.97,0-2.95,0-.1,0-.2,0-.3.01-.01,0-.03,0-.04.01-.01,0-.02.02-.03.03-.05.34-.07,7.38-.02,7.78ZM12.19,29.26c.07.02.11.03.15.03,1.03,0,2.06-.01,3.08-.02.07,0,.13-.03.22-.05,0-.17,0-.33,0-.49,0-2.04,0-4.08,0-6.12,0-.32,0-.64,0-.96,0-.08-.03-.16-.05-.23-.05-.01-.08-.02-.11-.02-1.04,0-2.08,0-3.13,0-.07,0-.13.03-.19.04-.05.49-.04,7.46.01,7.81ZM79.37,59.29c-.44-.07-3.31-.1-4.87-.05-.08,0-.17.02-.27.03-.01.11-.04.21-.04.31,0,1.52,0,3.04,0,4.56,0,.08.03.16.04.24.06,0,.11.02.15.02.42,0,.84-.03,1.26-.03,1.11,0,2.23,0,3.34,0,.11,0,.22-.02.35-.03.01-.07.03-.13.03-.18,0-1.62,0-3.24,0-4.88ZM64.16,64.38h1.74c.56,0,1.13,0,1.69,0,.56,0,1.12.03,1.67-.02.07-.38.11-3.56.06-4.84,0-.08-.03-.16-.04-.24-.36-.06-3.83-.09-4.92-.04-.07,0-.14.03-.21.04v5.1ZM79.37,71.51c.01-.11.03-.21.03-.3,0-1.45-.01-2.89-.02-4.34,0-.08-.03-.16-.04-.25-.08-.01-.14-.02-.19-.02-1.61-.04-3.21-.08-4.82-.12-.01,0-.03,0-.04.01-.01,0-.02.02-.05.05,0,.05-.02.12-.02.19,0,.19,0,.38,0,.56,0,1.26,0,2.52,0,3.78,0,.15-.04.32.08.48,1.63,0,3.26,0,4.9,0,.05,0,.11-.02.18-.04ZM69.28,71.52c.01-.11.03-.21.04-.31.04-1.82,0-4.23-.07-4.59-.02-.01-.05-.03-.07-.03-1.62,0-3.24.01-4.86.02-.04,0-.08.02-.15.04,0,.1-.02.19-.02.29,0,.32,0,.64,0,.96,0,1.07-.01,2.14-.02,3.21,0,.14-.04.29.09.44,1.61,0,3.22,0,4.84,0,.07,0,.14-.02.22-.03ZM49.77,68.99c.41.11,2.48.27,2.91.22.05-.15.03-.31.03-.46,0-1.42.01-2.84.02-4.25,0-.97,0-1.94,0-2.91,0-.13.04-.26-.06-.38-.04-.02-.08-.04-.12-.05-.91-.09-1.81-.18-2.72-.27-.01,0-.03,0-.04.01-.01,0-.02.02-.03.03-.06.43-.08,5.78-.03,7.81,0,.08.02.17.02.24ZM51.26,24.46c.17,0,.31.02.45.02.88.02,1.77.03,2.65.05.72.02,1.45.05,2.17.07.43.01.87.02,1.3.03.34.01.66-.07.96-.21.78-.35,1.56-.69,2.34-1.05.62-.28,1.23-.59,1.84-.88.07-.03.13-.09.25-.16-.17-.05-.28-.04-.39-.05-2.65-.07-5.3-.13-7.94-.2-.32,0-.64-.03-.95-.03-.81-.02-1.62-.04-2.43-.06-.08,0-.16.02-.24.02-.06.39-.07,2.03,0,2.44ZM59.39,64.32c.07-.13.04-.28.04-.42,0-1,0-2-.01-3,0-.32.02-.64.02-.95,0-.25-.02-.49-.21-.71-.17,0-.36-.03-.54-.03-.42,0-.84,0-1.26,0-.74,0-1.48,0-2.21,0-.11,0-.23-.03-.32.08,0,.03-.02.06-.02.08,0,1.59-.02,3.18-.02,4.78,0,.07.03.13.05.19.54.05,4.18.02,4.5-.03ZM59.46,66.62c-1.54-.02-3.01-.05-4.48-.07-.05,0-.11.03-.15.04-.07.4-.07,4.6,0,4.97.06.01.13.03.2.03,1.39,0,2.78,0,4.17,0,.07,0,.13-.03.24-.05.02-1.63.03-3.24.03-4.92ZM49.78,58.24c.06.02.13.04.2.05.86.1,1.72.2,2.59.3.04,0,.08-.02.14-.03.01-.1.03-.2.03-.3,0-2.07,0-4.14,0-6.21,0-.1-.02-.19-.04-.31-.93-.21-1.85-.41-2.77-.62-.04,0-.08.01-.14.02,0,.11-.02.23-.03.34-.05,2.95-.05,6.32.02,6.74ZM74.26,77.36c.07.01.11.03.15.03,1.59,0,3.18,0,4.77,0,.07,0,.13-.02.19-.03.06-.42.07-2.1.03-3.58,0-.1-.02-.2-.03-.31-.11-.01-.21-.04-.31-.04-1.53,0-3.07.01-4.6.03-.08,0-.16.03-.24.05-.06.54-.03,3.52.03,3.86ZM58.87,26.39c.25.01.47.03.68.03,1.59.04,3.19.07,4.78.1,2.01.04,4.03.08,6.04.12,1.38.03,2.75.06,4.13.09,3.65.08,7.3.16,10.95.24.97.02,1.94.06,2.91.1.23,0,.46.01.69,0,.1,0,.19-.04.29-.06.02-.18.05-.33-.02-.47-.14-.11-.28-.1-.43-.1-1.01-.03-2.03-.05-3.04-.07-1.67-.04-3.33-.08-5-.12-1.23-.03-2.46-.06-3.69-.1-3-.08-5.99-.15-8.99-.24-1.59-.04-3.18-.09-4.78-.14-1.39-.04-2.78-.08-4.17-.12-.11,0-.22,0-.35.02-.04.24-.03.45,0,.72ZM69.3,73.49c-.12-.01-.19-.03-.26-.03-.45,0-.9,0-1.35,0-.95-.01-1.91-.03-2.86-.04-.2,0-.4,0-.59.09-.12.19-.1.4-.1.6,0,1,0,2,0,3,0,.08.02.17.03.27.59.05,1.15.02,1.71.02.56,0,1.13,0,1.69,0,.56,0,1.12.03,1.69-.02.01-.08.03-.14.03-.19,0-1.22,0-2.43,0-3.7ZM54.81,77.36c.08,0,.14.02.19.02,1.4,0,2.8,0,4.21-.01.07,0,.13-.03.22-.05,0-.33.01-.65.02-.97,0-.32,0-.64,0-.95,0-.32,0-.64,0-.95,0-.31.03-.63-.02-.95-.08-.01-.14-.03-.19-.03-1.4,0-2.8-.01-4.21-.02-.07,0-.13.02-.19.04-.07.42-.1,3.42-.04,3.87ZM42.05,46.7c-.14.05-.25.08-.35.13-.51.22-1.01.43-1.52.65-2.79,1.2-5.58,2.4-8.37,3.61-.14.06-.3.1-.43.25,0,.49,0,.99-.01,1.5,0,.09.01.17.03.26.02.08.08.12.16.12.08,0,.15-.03.16-.12.01-.11,0-.23.02-.34,0-.1.03-.19.05-.27.88-.33,1.73-.65,2.58-.97.87-.33,1.73-.66,2.59-1,.85-.33,1.7-.67,2.54-1,.86-.34,1.72-.66,2.55-1.02.05-.43.05-1.4,0-1.78ZM54.59,47.29c.1-.21.06-.38.06-.55,0-4.13,0-8.25,0-12.38,0-1.35,0-2.69,0-4.04,0-.15.04-.32-.06-.47-.27-.04-.54-.05-.82,0-.06.18-.04.35-.04.52,0,4.78,0,9.55,0,14.33,0,.69,0,1.39,0,2.08,0,.11.02.22.04.33.28.06.53.11.81.16ZM52.66,77.34s.04-.07.04-.11c0-1.75.01-3.5.02-5.25,0-.04-.03-.08-.04-.12-.03-.02-.06-.04-.08-.04-.88-.07-1.76-.13-2.64-.19-.05,0-.1.03-.16.04,0,.09-.02.16-.02.23,0,1.75.01,3.5.02,5.25,0,.07.02.13.03.19.45.06,2.49.06,2.84,0ZM49.34,25.47c-.16,0-.29,0-.42,0-3.6-.07-7.21-.15-10.81-.22-2.27-.04-4.55-.08-6.82-.12-.33,0-.67-.02-1-.03-1.26-.02-2.52-.04-3.78-.06-.11,0-.23-.03-.34.1.02.15-.03.32.03.47.39.07,21.17.52,22.9.5.08,0,.17-.01.26-.02.05-.2.05-.38-.03-.62ZM54.7,65.69c.18.01.32.03.47.03.25,0,.49,0,.74,0,7.61,0,15.23,0,22.84,0,.12,0,.23,0,.35,0,.31,0,.35-.04.34-.36,0-.04-.03-.08-.04-.11-.14-.1-.29-.07-.43-.07-.55,0-1.1.02-1.65.02-3.26,0-6.51,0-9.77,0-3.5,0-7.01,0-10.51,0-.55,0-1.1-.03-1.65-.04-.23,0-.46-.02-.69.1v.44ZM54.68,58.04c.2.07.39.04.58.04,7.86,0,15.73,0,23.59,0,.12,0,.23,0,.35,0,.08,0,.16-.03.25-.04v-.45c-.2-.06-.39-.04-.57-.04-7.86,0-15.73,0-23.59,0-.13,0-.26,0-.39,0-.08,0-.16.03-.26.05.02.16.03.31.04.45ZM38.6,61.21c-.01.18-.03.36-.03.53,0,1.49,0,2.98,0,4.47,0,.82,0,1.65,0,2.47,0,.14-.04.29.08.43.49-.07.98-.16,1.46-.28.02-.06.05-.1.05-.14.01-2.59.02-5.18.03-7.76,0-.04-.02-.08-.04-.12-.38-.03-1.11.15-1.57.41ZM34.07,69.83c.32.05.57-.05.82-.1.25-.06.52-.03.77-.2,0-2.38.06-4.77-.01-7.16,0-.07-.02-.14-.04-.22-.28,0-.52.1-.77.17-.26.07-.53.11-.77.24v7.27ZM45.97,68.5c0-.14.02-.23.02-.33,0-2.39,0-4.77,0-7.16,0-.1-.02-.2-.03-.31-.47-.05-.92-.13-1.4-.08-.01.12-.03.21-.03.31,0,2.4,0,4.8,0,7.2,0,.1.02.19.04.3.32.02.62.05.93.07.14,0,.29,0,.48,0ZM40.16,50.87c-.49.11-.9.28-1.31.45-.21.09-.3.23-.3.47.02.53,0,1.07,0,1.6,0,1.52,0,3.04.01,4.55,0,.15-.04.32.07.48.08-.01.17,0,.24-.03.34-.12.68-.25,1.01-.38.09-.04.18-.08.29-.14,0-.14,0-.26,0-.39.01-2.02.02-4.05.04-6.07,0-.12,0-.23,0-.35,0-.05-.03-.1-.06-.19ZM56.77,56.64c.07.02.1.04.12.04.95,0,1.91-.01,2.86-.02.07,0,.13-.04.21-.06,0-.35,0-.68,0-1.01,0-.33,0-.67,0-1,0-.33.02-.66-.03-.97-.47-.17-2.8-.76-3.13-.79-.01.04-.04.08-.04.12,0,1.17,0,2.34-.01,3.51,0,.06.02.11.03.18ZM35.62,52.64c-.55.01-1,.29-1.48.48-.04.02-.08.08-.09.14-.02.07-.02.14-.02.22.01,1.98.02,3.96.04,5.95,0,.13.02.26.03.37.17.09.31.02.44-.03.27-.1.55-.19.82-.28.09-.03.18-.07.3-.12,0-2.2,0-4.38,0-6.56,0-.05-.03-.15-.04-.15ZM45.93,57.62s.04-.05.05-.06c0-.03.02-.05.02-.08,0-.07,0-.14,0-.22,0-2.27-.01-4.54-.02-6.81,0-.01,0-.03-.02-.04,0-.01-.01-.02-.04-.06-.44-.09-.9-.19-1.39-.23-.01.1-.02.17-.02.24,0,2.29,0,4.57,0,6.86,0,.08.03.16.05.26.47.05.93.1,1.36.14ZM54.77,72.69c.24.06.47.07.7.07.97,0,1.94-.03,2.91-.03,2.78,0,5.56,0,8.34,0,3.98,0,7.96.01,11.95.02.24,0,.49,0,.71-.06.03-.05.05-.07.05-.1.03-.22,0-.27-.2-.3-.16-.02-.32-.03-.48-.03-.48,0-.96.01-1.43.02-7.31.02-14.63.03-21.94.05-.12,0-.23,0-.35,0-.08,0-.16.03-.26.04v.32ZM60.28,24.78c.15.03.21.05.26.05,1.04.03,2.08.06,3.13.09.29,0,.57-.06.84-.2.26-.14.52-.24.79-.37,1.18-.56,2.35-1.12,3.52-1.69.08-.04.21-.04.18-.19-.02,0-.03-.01-.05-.01-1.22-.02-2.43-.03-3.65-.05-.15,0-.28.03-.42.1-.28.15-.57.29-.85.44-.62.32-1.24.64-1.9.85-.64.21-1.19.58-1.85.98ZM17.56,17.81c.1-.1.07-.21.07-.3,0-1.48.01-2.95.02-4.43,0-.16,0-.32-.02-.48,0-.05-.04-.1-.07-.18-.1.07-.19.12-.26.18-.25.2-.48.41-.73.62-.56.46-1.12.92-1.68,1.38-.22.18-.44.37-.61.6.22.25,2.3,1.93,3.15,2.55.04.03.09.05.14.07ZM43.31,70.13c.09.02.12.03.14.04,1.63.14,3.26.29,4.88.43,1.3.11,2.59.23,3.89.34.15.01.31.06.49-.03,0-.28.07-.56-.03-.86-.14-.02-.27-.04-.39-.05-.4-.04-.81-.08-1.21-.12-1.06-.11-2.13-.21-3.19-.32-.72-.07-1.44-.15-2.16-.22-.68-.07-1.35-.14-2.03-.2-.12-.01-.26-.06-.4.05-.01.3-.03.61,0,.94ZM21.81,15.29c-.07-.07-.12-.14-.19-.19-.97-.83-1.94-1.65-2.91-2.47-.05-.04-.11-.06-.21-.11,0,.19,0,.34,0,.48,0,1.24,0,2.49,0,3.73,0,.33,0,.67,0,1,0,.07,0,.15.1.17,1.06-.86,2.13-1.73,3.21-2.61ZM40.14,77.38c.01-.12.03-.19.02-.26,0-1.76,0-3.53,0-5.29,0-.07-.03-.13-.05-.19-.41,0-1.12.12-1.52.26,0,.13-.02.27-.02.42,0,1.47-.02,2.95-.03,4.42,0,.13,0,.26,0,.39,0,.08.04.16.06.24h1.53ZM10.02,21.82c0-.13.02-.27.02-.42,0-.59,0-1.19,0-1.78,0-.11.02-.22.04-.34.53-.08,1.03.01,1.53-.08.11-.36.22-.7.31-1.05.1-.35.3-.68.32-1.07-.38.21-4.66,3.43-6.08,4.58-.05.04-.1.1-.18.18.11.02.18.05.24.05,1.32.05,3.44.01,3.79-.07ZM43.33,59.1c.08.03.13.06.19.07,3,.36,6,.73,9.01,1.09.07,0,.14,0,.23,0,.05-.29.06-.55,0-.8-.06-.03-.08-.05-.11-.05-1.3-.18-2.61-.36-3.91-.54-.96-.13-1.92-.26-2.88-.39-.7-.1-1.4-.2-2.11-.29-.12-.02-.26-.06-.4.03,0,.11-.02.24-.02.37,0,.17,0,.34,0,.52ZM44.51,71.41c0,.2,0,.36,0,.52,0,1.13,0,2.26,0,3.38,0,.58,0,1.16,0,1.74,0,.11-.03.23.11.35.34,0,.72,0,1.09,0,.08,0,.16-.03.26-.05,0-.16,0-.31,0-.45,0-.49,0-.98,0-1.47,0-1.19,0-2.37,0-3.56,0-.14.04-.29-.09-.44-.42,0-.86-.05-1.36,0ZM33.89,71.78c.09.01.13.03.17.02,2.56-.47,5.11-.94,7.67-1.42.05-.01.1-.04.15-.06.07-.53.06-.83-.06-1.06-.43.03-7.58,1.43-7.95,1.56-.04.31-.05.62.02.95ZM41.95,58.18c-.17-.05-.28.03-.4.08-.51.21-1.02.39-1.56.53-.18.04-.36.11-.54.17-.88.29-1.76.59-2.64.87-.72.23-1.44.45-2.15.67-.25.08-.51.13-.7.33-.03.29-.08.57.06.84.18.03.33-.04.48-.09,1.64-.55,3.33-.97,4.96-1.57.2-.08.41-.13.62-.19.62-.18,1.24-.37,1.86-.55.11-.42.11-.61,0-1.09ZM12.96,19.23c.14,0,.29.02.43.02,1.26,0,2.51.01,3.77.02.15,0,.32.04.46-.06.05-.14.04-.26-.08-.35-.05-.03-.09-.07-.14-.11-.92-.73-1.83-1.46-2.75-2.19-.16-.13-.32-.24-.49-.36-.07-.05-.15-.07-.24-.12-.05.1-.1.17-.12.25-.11.33-.21.66-.32.99-.04.11-.07.22-.11.33-.13.37-.27.73-.39,1.1-.05.15-.07.31-.02.49ZM22.11,16.13c-.08.05-.14.08-.2.13-.92.74-1.85,1.48-2.77,2.23-.2.16-.38.36-.56.54-.04.04-.06.12-.08.18.19.1.36.09.53.09,1.01-.01,2.02-.02,3.04-.03.26,0,.52.03.78.03.12,0,.26.02.37-.11-.02-.06-.03-.13-.05-.2-.18-.61-.36-1.22-.55-1.83-.07-.22-.15-.44-.23-.65-.05-.13-.11-.27-.27-.37ZM35.66,77.38c0-1.6,0-3.17,0-4.74,0-.05-.03-.11-.04-.16-.33-.02-1.1.07-1.51.19-.06.14-.03.3-.03.46-.01,1.24-.02,2.48-.03,3.73,0,.17-.01.35.07.51.34.09,1.09.1,1.55.01ZM18.43,63.9c.61-.39,1.19-.75,1.75-1.12.51-.33,1-.68,1.5-1.03.01,0,.02-.02.02-.04,0-.01,0-.03,0-.07-1.07-.65-2.15-1.31-3.26-1.98-.03.09-.05.14-.06.19-.05.65-.02,3.69.04,4.05ZM21.82,38.81c-.09-.07-.16-.14-.24-.2-.94-.67-1.96-1.22-2.97-1.78-.04-.02-.1,0-.17-.01,0,1.38,0,2.74,0,4.1,0,.02.03.04.04.06.01,0,.03.01.04,0,1.09-.71,2.17-1.43,3.3-2.17ZM18.42,65.51c0,1.29,0,2.52,0,3.75,0,.14,0,.29.01.43,0,.01,0,.03.01.04,0,0,.02.01.07.04.35-.21.7-.46,1.06-.7.37-.25.75-.49,1.11-.75.35-.25.73-.45,1.07-.78-1.06-.66-2.09-1.3-3.12-1.93-.05-.03-.1-.04-.22-.09ZM18.45,53.98c-.01.07-.03.11-.03.15,0,1.29,0,2.58,0,3.86,0,.05.03.1.06.17,1.08-.71,2.13-1.4,3.18-2.09.03-.02.05-.07.07-.1-.26-.22-2.87-1.82-3.29-2ZM21.8,50.18c-1.13-.69-2.18-1.35-3.25-1.97-.02-.01-.05,0-.09.01,0,.04-.03.08-.03.11,0,1.29,0,2.57,0,3.86,0,.05.03.09.06.18,1.1-.72,2.18-1.42,3.3-2.18ZM18.43,46.63c1.13-.71,2.2-1.38,3.26-2.04.03-.02.06-.06.09-.1-.05-.04-.08-.08-.13-.11-1.02-.61-2.04-1.22-3.05-1.83-.04-.03-.1-.02-.17-.04v4.12ZM14.31,34.07c-.01.06-.03.09-.03.11,0,1.27,0,2.55,0,3.82,0,.05.03.1.05.16.08-.04.13-.06.18-.09.99-.66,1.97-1.31,2.96-1.97.01,0,.02-.02.03-.03,0-.01,0-.02,0-.04-.36-.29-2.87-1.84-3.19-1.96ZM14.28,56.85c-.01.15-.02.22-.02.29,0,1.26,0,2.51.02,3.77,0,.01,0,.03.01.04,0,0,.03.01.07.03.35-.19.69-.43,1.04-.66.35-.23.71-.45,1.05-.69.34-.24.71-.42,1.02-.74-.08-.06-.13-.11-.19-.15-.97-.62-1.95-1.23-2.99-1.89ZM14.35,43.78c.07-.03.11-.04.15-.06.94-.62,1.89-1.23,2.83-1.85.06-.04.09-.1.16-.16-.12-.08-.21-.15-.31-.21-.77-.48-1.55-.96-2.33-1.43-.11-.07-.22-.14-.34-.19-.06-.03-.13-.03-.2-.05-.06.42-.04,3.53.03,3.95ZM17.4,64.69c-.25-.24-1.88-1.29-2.94-1.9-.05-.03-.1-.03-.15-.05-.02.05-.04.07-.04.1,0,1.23-.01,2.46-.01,3.68,0,.07,0,.15.12.19.97-.63,1.96-1.27,2.96-1.92.03-.02.05-.06.07-.09ZM17.44,47.39c-1-.62-1.94-1.2-2.87-1.77-.05-.03-.1-.05-.15-.08-.01,0-.03-.01-.04,0-.01,0-.02.01-.04.02-.07.36-.1,2.22-.06,3.67,0,.05-.01.12.08.16.03-.01.09-.02.13-.05.96-.63,1.92-1.27,2.95-1.94ZM17.42,53.09s-.03-.05-.05-.06c-.97-.6-1.94-1.2-2.91-1.8-.04-.03-.1-.02-.15-.02-.01.05-.02.08-.02.11,0,1.2-.01,2.4-.02,3.6,0,.05.03.1.05.18,1.05-.68,2.07-1.33,3.1-2ZM14.63,67.65c.3.31,1.59,1.17,2.72,1.83.06.03.12.05.21.09.02-.16.05-.29.05-.41,0-1.08,0-2.17,0-3.25,0-.06-.04-.12-.07-.19-.07.02-.12.02-.15.05-.92.61-1.83,1.21-2.75,1.82-.02.01-.02.05-.03.07ZM14.66,56c.19.22.41.3.61.43.29.18.61.34.87.57.42.36.89.63,1.35.94.02.01.05,0,.1-.01,0-.05.03-.1.03-.16,0-1.17.01-2.34.01-3.51,0-.05-.03-.1-.05-.17-.1.04-.19.07-.26.11-.24.15-.48.32-.73.47-.42.28-.85.55-1.27.83-.17.11-.34.22-.5.34-.05.04-.09.1-.16.17ZM21.88,62.77c-.1.05-.17.07-.22.11-.77.48-1.55.96-2.32,1.44-.09.05-.17.11-.25.17-.06.05-.15.09-.15.22.08.12.22.2.36.28.79.49,1.57.98,2.36,1.46.06.03.12.05.19.08.07-.39.1-3.19.03-3.76ZM14.64,50.3c.99.65,1.92,1.26,2.85,1.86.02.01.05,0,.08,0,.01,0,.03-.02.03-.03,0-.06.02-.11.02-.17,0-1.16,0-2.31,0-3.47,0-.01,0-.03-.01-.04,0-.01-.02-.01-.05-.03-.03,0-.08,0-.11.03-.92.6-1.83,1.21-2.81,1.85ZM26.24,23.88c.07-.03.15-.06.22-.11.71-.44,1.47-.8,2.24-1.15.61-.27,1.19-.6,1.78-.91.07-.04.17-.06.15-.21-.07,0-.16-.02-.24-.02-.38,0-.75-.01-1.13-.02-.88-.02-1.76-.05-2.65-.07-.13,0-.25.01-.39.02-.01.08-.03.14-.03.19,0,.72,0,1.45,0,2.17,0,.02.03.04.06.09ZM17.57,59.97c-.09.03-.14.04-.19.07-.86.56-1.71,1.13-2.57,1.7-.05.03-.08.08-.14.14.95.61,1.89,1.21,2.83,1.8.02.01.05,0,.08,0,.06-.37.06-3.31-.01-3.71ZM21.87,55c.02-.07.03-.1.03-.12,0-1.16,0-2.32,0-3.47,0-.05-.03-.1-.05-.15-.3.13-2.02,1.22-2.66,1.68-.09.07-.17.15-.27.23.06.05.1.1.14.13.5.3.99.6,1.5.88.26.15.53.3.76.5.15.13.31.25.54.33ZM14.77,44.64c.24.22,1.83,1.28,2.63,1.74.05.03.1.04.16.06.02-.06.05-.1.05-.14,0-1.14.02-2.29.02-3.43,0-.05-.04-.1-.07-.16-.07.03-.13.05-.17.08-.86.59-1.72,1.17-2.58,1.76-.02.01-.03.05-.04.07ZM14.78,39.01c.11.09.21.18.32.25.78.49,1.57.98,2.35,1.46.04.03.1.02.18.03,0-.17,0-.32,0-.46,0-.75,0-1.5,0-2.25,0-.26,0-.52,0-.78,0-.06-.04-.13-.06-.19-.06,0-.09,0-.11,0-.82.55-1.63,1.09-2.44,1.64-.07.05-.13.11-.2.17-.02.02-.02.05-.05.12ZM21.91,45.53c-.39.17-2.61,1.57-2.91,1.83.07.21.25.3.43.4.4.23.8.46,1.2.69.34.2.67.41,1,.61.07.04.15.08.23.12.02-.07.05-.11.05-.15,0-1.16,0-2.31,0-3.51ZM21.9,60.69c.04-1.2,0-2.36.01-3.51,0-.04-.03-.07-.05-.13-.06.02-.11.04-.16.07-.65.38-2.48,1.59-2.72,1.81.92.58,1.83,1.16,2.75,1.73.03.02.08.02.17.04ZM49.24,22.12s-.04-.06-.05-.09c-.04,0-.08-.03-.12-.03-1.29-.03-2.58-.07-3.86-.09-.08,0-.16.02-.26.03,0,.1-.02.17-.02.24,0,.67.01,1.33.02,2,0,.02.03.04.05.09.11-.05.23-.09.34-.15,1.06-.53,2.13-1.05,3.19-1.58.19-.1.37-.22.56-.33.05-.03.1-.06.15-.08ZM19.03,41.74c.09.07.13.09.16.12.85.52,1.7,1.05,2.55,1.57.04.02.1.02.16.03,0-1.17,0-2.31,0-3.45,0-.04-.02-.08-.04-.15-.11.06-.21.11-.31.17-.82.56-1.69,1.06-2.52,1.72ZM38.73,24.06s.06.02.08.01c1.39-.71,2.79-1.41,4.18-2.12.02,0,.02-.05.04-.1-1.32-.05-2.63-.09-3.94-.11-.11,0-.22.01-.33.02-.07.33-.09,1.86-.03,2.3ZM36.86,21.74c-.09-.02-.14-.04-.19-.05-1.27-.04-2.55-.08-3.82-.12-.07,0-.14.02-.2.02-.06.42-.05,1.96.01,2.31.15.05.24-.06.36-.11,1.08-.53,2.12-1.13,3.21-1.63.17-.08.33-.18.49-.28.04-.03.07-.07.14-.14ZM9.87,23.43c-.12-.01-.19-.02-.26-.02-2.42,0-4.83,0-7.25,0-.08,0-.16.03-.25.04-.02.22-.06.41.03.62.16,0,.3.01.44.01,1.1,0,2.2,0,3.3,0,1.19,0,2.37,0,3.56,0,.14,0,.29.05.43-.08v-.58ZM9.85,25.72c.03-.22.06-.42-.02-.63-.11,0-.2-.02-.3-.02-2.37,0-4.74,0-7.11,0-.1,0-.19.02-.29.03q-.05.34.02.6c.34.05,7.24.08,7.7.02ZM19.07,36.07s.07.09.11.13c.13.09.26.18.4.26.46.27.92.54,1.39.8.23.13.45.26.68.39.07.04.15.04.26.08,0-1.14,0-2.23,0-3.33,0-.05-.04-.09-.06-.14-.49.24-2.45,1.53-2.77,1.82ZM14.34,71.29c.49.07,1.36.08,1.75-.02.24-.06.46-.16.69-.26.1-.04.2-.12.29-.19.09-.06.2-.11.25-.23-.04-.04-.06-.08-.09-.1-.92-.6-1.84-1.2-2.76-1.8-.04-.03-.1-.03-.16-.04-.05.48-.03,2.28.03,2.64ZM21.86,68.62c-.09.04-.13.05-.17.07-.94.62-1.88,1.24-2.82,1.87-.04.03-.11.06-.07.16.03.02.07.06.12.09.16.09.33.18.5.27.21.11.43.16.67.16.52,0,1.04,0,1.56-.01.08,0,.16-.03.27-.04,0-.8,0-1.58,0-2.36,0-.05-.02-.11-.05-.2ZM70.94,24.74s.06.02.08.01c1.34-.65,2.68-1.29,4.02-1.94.02,0,.02-.04.04-.07-.02-.01-.04-.04-.07-.04-1.24-.04-2.48-.07-3.73-.11-.11,0-.22.04-.32.05-.07.36-.08,1.73-.02,2.09ZM9.86,26.82c-.18-.08-.36-.05-.53-.05-2.23,0-4.45,0-6.68,0-.1,0-.2,0-.3,0-.08,0-.16.03-.25.05-.02.21-.04.39.02.6.17,0,.33.01.48.01,2.26,0,4.51,0,6.77,0,.09,0,.17,0,.26,0,.08,0,.16-.04.23-.05v-.54ZM31.72,22.05c-.14.06-.24.1-.34.15-1.08.53-2.16,1.06-3.23,1.59-.08.04-.15.08-.23.12-.06.04-.12.08-.06.2.42,0,.85.01,1.28.02.43,0,.87.03,1.3.03.43,0,.86.05,1.28,0,.08-.35.08-1.67,0-2.1ZM70.15,23.07c-.19-.04-.3.05-.41.1-.56.27-1.11.55-1.67.82-.56.27-1.13.52-1.69.79-.07.03-.17.05-.14.19.4.01.8.02,1.2.03.79.02,1.59.04,2.38.06.11,0,.23.04.33-.08v-1.92ZM68.04,55.83c-.5-.19-3.09-.82-3.39-.83-.07.39-.06,1.26,0,1.6.05,0,.1.03.16.03,1.03,0,2.06,0,3.08,0,.04,0,.08-.03.14-.05.03-.24.03-.48,0-.74ZM37.89,24.2c0-.21,0-.41,0-.61,0-.22,0-.43,0-.65,0-.19.04-.4-.04-.58-.17-.04-.28.04-.39.1-.79.39-1.58.78-2.37,1.18-.28.14-.56.3-.84.45-.05.03-.1.06-.06.15.04,0,.1.02.15.02,1.14,0,2.28,0,3.43,0,.02,0,.05-.02.13-.06ZM40.25,24.34c.11.02.17.03.22.03,1.11.02,2.23.03,3.34.05.08,0,.16-.03.24-.04.06-.48.04-1.52-.02-1.84-.08.02-.17.02-.25.05-.35.14-.71.26-1.04.43-.78.38-1.55.79-2.32,1.18-.04.02-.08.06-.17.14ZM2.13,28.93s.09.04.13.04c2.48,0,4.95.01,7.43.02.04,0,.08-.02.14-.04.04-.17.05-.33-.04-.51-.1,0-.2-.02-.3-.02-2.3,0-4.6,0-6.91,0-.16,0-.32-.02-.46.09-.05.14-.06.28.01.42ZM46.64,24.45c.08.02.13.04.18.05,1.03.06,3.13.05,3.48-.02.05-.19.03-.39.03-.59,0-.22.01-.43,0-.65,0-.2.02-.4-.05-.59-.54.11-1.74.7-3.65,1.8ZM21.42,13.92c0-.09,0-.15-.02-.2-.38-1.06-.76-2.12-1.14-3.18-.02-.06-.07-.12-.11-.18-.34.2-1.26.95-1.49,1.23.85.75,1.78,1.42,2.59,2.23.04.04.09.06.18.1ZM79.59,23.55c-.46-.24-1.75-.66-2.22-.71-.07,0-.15,0-.21.02-.19.09-.4.16-.54.32-.06.88-.04,1.46.06,1.73.94-.43,1.89-.85,2.83-1.28.03-.02.05-.06.08-.09ZM14.71,13.65c.08-.03.12-.03.15-.06.8-.66,1.6-1.33,2.4-2,.04-.04.07-.09.1-.13-.54-.6-1.11-1.07-1.47-1.22-.39,1.04-.74,2.09-1.11,3.14-.03.08-.04.16-.08.27ZM18.47,5.99c-.06.39-.07,3.72-.03,4.51,0,.02.03.04.07.1.24-.15.46-.33.68-.51.22-.18.48-.31.67-.51-.2-.72-1.17-3.23-1.39-3.59ZM75.79,23.4c-.1.04-.17.06-.23.09-.77.36-1.54.72-2.31,1.09-.26.12-.51.26-.77.4-.06.03-.14.05-.12.15.51.07,3.04.11,3.41.05.07-.3.08-1.14.03-1.78ZM16.26,9.45c.12.1.26.22.4.35.14.12.28.25.43.37.14.11.25.27.47.32,0-.13.02-.23.02-.32.01-1.23.02-2.46.03-3.69,0-.07,0-.15,0-.22,0-.05,0-.12-.1-.13-.03.07-.07.14-.1.22-.35.87-.64,1.77-1.04,2.62-.07.14-.14.29-.09.5ZM81.37,24.07c-.3-.1-.54-.17-.83-.04-.82.39-1.65.75-2.48,1.13-.06.03-.14.04-.13.15,1.1.02,2.19.05,3.28.07.04,0,.08-.02.15-.05.02-.41.03-.82,0-1.26ZM90.27,27.76c.38.09.99.07,1.26-.04.08-.63.08-1.72,0-2.03-.21-.05-.43-.03-.64-.02-.21,0-.43-.04-.63.04-.05.46-.05,1.72,0,2.05ZM87.12,25.67s-.01-.03-.02-.05c-.5-.13-1.01-.26-1.51-.4-1-.28-2-.57-3.01-.85-.11-.03-.22-.04-.35-.07-.03.38-.07.74.01,1.12,1.63.08,3.25.16,4.86.24ZM18.46,35.29c.08-.03.13-.03.16-.05.63-.39,1.25-.78,1.88-1.17.04-.02.05-.08.08-.14-.61-.06-1.86-.03-2.16.05-.04.43-.09.86.04,1.32ZM17.58,35.04c.08-.5.07-.82-.02-1.09-.53-.06-1.28-.05-1.61.03.55.36,1.07.7,1.63,1.06Z"/>
  </g>
</svg>