<?xml version="1.0" encoding="UTF-8"?>
<svg id="Layer_2" data-name="Layer 2" xmlns="http://www.w3.org/2000/svg" viewBox="0 0 69.9 78.1">
  <defs>
    <style>
      .cls-1 {
        fill: #c9c9c9;
      }
    </style>
  </defs>
  <g id="Layer_1-2" data-name="Layer 1">
    <g>
      <path class="cls-1" d="M18.39,25.03c.35.9,1.17,1.55,2.1,1.78.83.2,1.68.42,2.53.34,1.02,2.57,2.2,5.16,4.14,7.18,1.89,2.03,4.49,3.41,7.25,3.71,2.65.23,5.3-.93,7.17-2.77,1.35-1.24,2.47-2.71,3.32-4.33,2.11-.66,4.13-2.16,4.7-4.39,1.24-.53,2.11-1.8,2.14-3.16.05-1.49.02-2.98.06-4.47,0-.57.06-1.18-.19-1.72-.29-.6-.82-1.03-1.37-1.36-.24-3.35-1.7-6.47-3.55-9.22-1.16-2-2.76-3.77-4.79-4.9-1.88-1.08-4.05-1.56-6.21-1.69-3.38-.16-6.9.82-9.46,3.09-1.19.99-2.09,2.27-2.99,3.53-1.88,2.71-3.3,5.86-3.56,9.18-.43.29-.91.54-1.21.97-.34.45-.32,1.04-.36,1.58-.03,1.43,0,2.85,0,4.28,0,.8-.04,1.63.28,2.38ZM44,29.8c-1.6.53-3.29.5-4.95.6-.47-.59-1.06-1.13-1.82-1.26-.82-.11-1.66-.09-2.49-.07-1.08,0-2.05.91-2.13,1.99-.16,1.17.8,2.32,1.96,2.43.99.08,2.01.11,3-.02.85-.14,1.39-.92,1.6-1.7,1.35,0,2.7-.06,4.01-.39-1.36,1.83-3.02,3.54-5.13,4.49-1.38.62-2.95.9-4.44.54-2.94-.66-5.45-2.68-7.04-5.2-1.18-1.87-2.02-3.96-2.51-6.11-.46-2.23-.59-4.52-.61-6.8,2.53-.17,5.09-.25,7.54-.9,3.9-1.01,7.65-3.37,9.51-7.04.99,2.66,2.19,5.33,4.14,7.45.51.56,1.09,1.04,1.73,1.44-.07,3.62-.62,7.35-2.37,10.56ZM45.69,29.29c.42-.78.75-1.6,1.03-2.44.46.26.98.31,1.49.14-.53,1.04-1.52,1.76-2.52,2.3ZM25.53,6.15c1.88-1.73,4.33-2.73,6.82-3.18,3.3-.58,6.77.11,9.68,1.74,2.8,1.68,5.1,4.25,6.26,7.32.4,1.1.62,2.25.82,3.39-.41-.04-.82-.03-1.23,0-.46-3.46-2.43-6.65-5.25-8.68-2.34-1.64-5.18-2.61-8.05-2.56-2.93-.06-5.81,1.07-8.04,2.93-2.46,2.1-3.93,5.14-4.57,8.27-.39-.02-.79,0-1.18.04.4-3.53,2.13-6.88,4.74-9.29Z"/>
      <path class="cls-1" d="M39.71,44.57c-.35-.57-.85-1.03-1.3-1.52-1.14-1.15-2.25-2.36-3.6-3.26-1.58,1.53-3.16,3.05-4.55,4.76.75-.38,1.28-1.06,2.03-1.42.4.49.79,1,1.15,1.51-.31.47-.62.96-1,1.39,1.71-.03,3.42-.04,5.13,0-.46-.39-.74-.91-1.08-1.4.4-.51.72-1.07,1.14-1.56.67.52,1.3,1.11,2.07,1.5Z"/>
      <path class="cls-1" d="M27.67,38.71c-.22-1.05-.56-2.12-.44-3.2-.31.54-.88.83-1.37,1.17-4.05,2.6-8.75,3.89-13.05,6.01-1.83.94-3.24,2.58-4.13,4.42-.61,1.29-1.12,2.62-1.59,3.96-2,5.75-4.19,11.42-6.17,17.17-.27.85-.57,1.69-.76,2.56-.37,1.7-.12,3.55.81,5.02.63,1.04,1.64,1.77,2.72,2.28h7.26c-.14-.08-.27-.18-.38-.3-.84-.86-1.14-2.13-1.13-3.3,0-8.02-.19-16.04-.11-24.06-.05-1.69,1.09-3.23,2.56-3.97,1.25-.62,2.68-.36,4.02-.4,4.59-.04,9.19.02,13.78-.07-.65-2.44-1.5-4.82-2.02-7.29ZM58.85,49.1c-.59-1.07-1.82-1.65-3.01-1.67-3.98.01-7.96,0-11.94.02-2.67.08-5.35-.07-8.02.02-3.05-.07-6.09.05-9.14-.03-4.17-.02-8.35.04-12.52,0-1.16-.04-2.34.53-2.99,1.49-.5.71-.46,1.61-.46,2.44.01,7.52.06,15.05.07,22.58.01.97.03,2,.54,2.85.29.55.76,1,1.31,1.3h44.61c.77-.48,1.38-1.24,1.65-2.12.18-.59.17-1.23.18-1.84.03-7.59.07-15.18.11-22.77.01-.77.02-1.59-.39-2.27ZM35.99,66.91c-1.56.57-3.44-.48-3.82-2.09-.4-1.37.37-2.96,1.71-3.46,1.47-.65,3.29.13,3.87,1.61.67,1.5-.19,3.44-1.76,3.94ZM60.55,74.68c-.07,1.16-.32,2.5-1.29,3.25-.09.07-.18.13-.27.17,0,0,6.92-.02,7.27-.02,1.62-.77,2.98-2.18,3.4-3.96.44-1.51.22-3.12-.24-4.6-1.03-3.35-2.29-6.62-3.48-9.91l-3.39-9.54c-.8-2.14-1.64-4.39-3.38-5.95-1.76-1.61-4.09-2.3-6.21-3.26-3.51-1.52-7.21-2.8-10.27-5.17-.01,1.49-.38,2.94-.72,4.38-.47,2-1.1,3.96-1.78,5.91,1.11.07,2.22.05,3.33.06,4.36,0,8.71.05,13.06.06,2.25.04,4.06,2.13,4.12,4.32.05,3.36.04,6.73-.04,10.09-.05,4.73-.07,9.45-.11,14.17Z"/>
    </g>
  </g>
</svg>