<?xml version="1.0" encoding="UTF-8"?>
<svg id="Layer_2" data-name="Layer 2" xmlns="http://www.w3.org/2000/svg" viewBox="0 0 39.87 39.87">
  <defs>
    <style>
      .cls-1 {
        fill: #fff;
      }

      .cls-2 {
        fill: #25247b;
      }
    </style>
  </defs>
  <g id="Layer_1-2" data-name="Layer 1">
    <g>
      <path class="cls-1" d="M39.87,19.93c0,11.01-8.92,19.93-19.93,19.93h0C8.92,39.87,0,30.94,0,19.93h0C0,8.92,8.92,0,19.93,0h0c11.01,0,19.93,8.92,19.93,19.93h0Z"/>
      <path class="cls-2" d="M25.84,18.39l-.33,2.67c-.06.45-.43.78-.88.78h-4.32v11.15c-.46.04-.92.06-1.38.06-1.04,0-2.06-.1-3.05-.3v-10.91h-3.32c-.3,0-.55-.25-.55-.56v-3.34c0-.31.25-.56.55-.56h3.32v-5c0-3.07,2.48-5.56,5.54-5.56h3.88c.3,0,.55.25.55.56v3.34c0,.31-.25.56-.55.56h-2.77c-1.22,0-2.21,1-2.21,2.22v3.89h4.65c.53,0,.95.47.88,1Z"/>
    </g>
  </g>
</svg>