<?xml version="1.0" encoding="UTF-8"?>
<svg id="Layer_2" data-name="Layer 2" xmlns="http://www.w3.org/2000/svg" viewBox="0 0 39.87 39.87">
  <defs>
    <style>
      .cls-1 {
        fill: #fff;
      }

      .cls-2 {
        fill: #25247b;
      }
    </style>
  </defs>
  <g id="Layer_1-2" data-name="Layer 1">
    <g>
      <path class="cls-1" d="M39.87,19.93c0,11.01-8.92,19.93-19.93,19.93h0C8.92,39.87,0,30.94,0,19.93h0C0,8.92,8.92,0,19.93,0h0c11.01,0,19.93,8.92,19.93,19.93h0Z"/>
      <circle class="cls-2" cx="12.87" cy="12.04" r="2.57"/>
      <rect class="cls-2" x="10.73" y="16.32" width="4.28" height="12.84" rx="1.91" ry="1.91"/>
      <path class="cls-2" d="M29.56,21.02v7.27c0,.47-.39.86-.86.86h-2.57c-.47,0-.86-.39-.86-.86v-5.99c0-1.18-.96-2.14-2.14-2.14s-2.14.96-2.14,2.14v5.99c0,.47-.39.86-.86.86h-2.57c-.47,0-.86-.39-.86-.86v-11.13c0-.47.39-.86.86-.86h2.57c.47,0,.86.39.86.86v.55c.86-1.11,2.27-1.83,3.85-1.83,2.36,0,4.71,1.71,4.71,5.13Z"/>
    </g>
  </g>
</svg>