<?xml version="1.0" encoding="UTF-8"?>
<svg id="Layer_2" data-name="Layer 2" xmlns="http://www.w3.org/2000/svg" viewBox="0 0 39.87 39.87">
  <defs>
    <style>
      .cls-1 {
        fill: #fff;
      }

      .cls-2 {
        fill: #25247b;
      }
    </style>
  </defs>
  <g id="Layer_1-2" data-name="Layer 1">
    <g>
      <path class="cls-1" d="M39.87,19.93c0,11.01-8.92,19.93-19.93,19.93h0C8.92,39.87,0,30.94,0,19.93h0C0,8.92,8.92,0,19.93,0h0c11.01,0,19.93,8.92,19.93,19.93h0Z"/>
      <path class="cls-2" d="M22.81,18.1l8.06-8.62h-3.06l-6.33,6.77-4.85-6.77h-8.38l8.48,11.84-8.48,9.07h3.06l6.74-7.21,5.16,7.21h8.38l-8.8-12.29ZM12.58,11.7h2.92l11.8,16.48h-2.92L12.58,11.7Z"/>
    </g>
  </g>
</svg>