<?xml version="1.0" encoding="UTF-8"?>
<svg id="Layer_2" data-name="Layer 2" xmlns="http://www.w3.org/2000/svg" viewBox="0 0 233.14 233.14">
  <defs>
    <style>
      .cls-1 {
        fill: #fff;
      }

      .cls-2 {
        fill: #25247b;
      }
    </style>
  </defs>
  <g id="Layer_1-2" data-name="Layer 1">
    <g>
      <circle class="cls-2" cx="116.57" cy="116.57" r="116.57"/>
      <path class="cls-1" d="M99.77,81.75c14.67,0,29.33-.07,44,.04,4.85.04,9.74-.04,14.45,1.6,9.25,3.23,16.32,8.81,19.87,18.22.78,2.06,1.2,4.2,1.26,6.43.24,8.59.32,17.18.13,25.76-.12,5.35.18,10.69.11,16.04-.01,1.11-.26,1.56-1.46,1.55-6.59-.04-13.19-.03-19.78,0-1.06,0-1.46-.27-1.46-1.41.05-13.83.01-27.65.08-41.48.05-9.35-7.6-18.32-16.88-19.76-2.17-.33-4.3-.03-6.45-.03-10.07.02-20.14,0-30.21.01-7.27,0-14.55-.03-21.82.08-3.56.06-3.12-.02-2.84,3.08.04.44.03.88.03,1.32.01,18.78.02,37.56.03,56.35,0,1.77,0,1.79-1.78,1.79-7.35.01-14.71,0-22.06.05-1.17,0-1.48-.39-1.48-1.52.03-22.18.02-44.36.02-66.54,0-1.57.03-1.59,1.62-1.6.12,0,.24,0,.36,0,14.75,0,29.49,0,44.24,0Z"/>
    </g>
  </g>
</svg>