<?xml version="1.0" encoding="UTF-8"?>
<svg id="Layer_2" data-name="Layer 2" xmlns="http://www.w3.org/2000/svg" viewBox="0 0 39.87 39.87">
  <defs>
    <style>
      .cls-1 {
        fill: #fff;
      }

      .cls-2 {
        fill: #25247b;
      }
    </style>
  </defs>
  <g id="Layer_1-2" data-name="Layer 1">
    <g>
      <path class="cls-1" d="M39.87,19.93c0,11.01-8.92,19.93-19.93,19.93h0C8.92,39.87,0,30.94,0,19.93h0C0,8.92,8.92,0,19.93,0h0c11.01,0,19.93,8.92,19.93,19.93h0Z"/>
      <path class="cls-2" d="M25.34,9.48h-10.82c-2.79,0-5.05,2.26-5.05,5.05v10.82c0,2.79,2.26,5.05,5.05,5.05h10.82c2.79,0,5.05-2.26,5.05-5.05v-10.82c0-2.79-2.26-5.05-5.05-5.05ZM28.59,24.98c0,1.99-1.62,3.61-3.61,3.61h-10.1c-1.99,0-3.61-1.62-3.61-3.61v-10.1c0-1.99,1.62-3.61,3.61-3.61h10.1c1.99,0,3.61,1.62,3.61,3.61v10.1Z"/>
      <path class="cls-2" d="M19.94,14.53c-2.99,0-5.41,2.42-5.41,5.41s2.42,5.41,5.41,5.41,5.41-2.42,5.41-5.41-2.42-5.41-5.41-5.41ZM19.94,23.54c-1.99,0-3.61-1.62-3.61-3.61s1.62-3.61,3.61-3.61,3.61,1.62,3.61,3.61-1.62,3.61-3.61,3.61Z"/>
      <circle class="cls-2" cx="25.71" cy="14.16" r="1.08"/>
    </g>
  </g>
</svg>