<?xml version="1.0" encoding="UTF-8"?>
<svg id="Layer_2" data-name="Layer 2" xmlns="http://www.w3.org/2000/svg" viewBox="0 0 39.87 39.87">
  <defs>
    <style>
      .cls-1 {
        fill: #fff;
      }

      .cls-2 {
        fill: #25247b;
      }
    </style>
  </defs>
  <g id="Layer_1-2" data-name="Layer 1">
    <g>
      <path class="cls-1" d="M39.87,19.93c0,11.01-8.92,19.93-19.93,19.93h0C8.92,39.87,0,30.94,0,19.93h0C0,8.92,8.92,0,19.93,0h0c11.01,0,19.93,8.92,19.93,19.93h0Z"/>
      <path class="cls-2" d="M28.52,11.49H11.34c-1.7,0-3.07,1.38-3.07,3.07v10.75c0,1.7,1.38,3.07,3.07,3.07h17.18c1.7,0,3.07-1.38,3.07-3.07v-10.75c0-1.7-1.38-3.07-3.07-3.07ZM22.69,20.67l-4.78,2.39c-.55.28-1.2-.12-1.2-.74v-4.78c0-.62.65-1.02,1.2-.74l4.78,2.39c.61.3.61,1.18,0,1.48Z"/>
    </g>
  </g>
</svg>