<?xml version="1.0" encoding="UTF-8"?>
<svg id="Layer_2" data-name="Layer 2" xmlns="http://www.w3.org/2000/svg" viewBox="0 0 316.45 79.39">
  <defs>
    <style>
      .cls-1 {
        fill: #25247b;
      }

      .cls-2 {
        fill: #ed1651;
      }

      .cls-3 {
        fill: #333;
      }

      .cls-4 {
        fill: #58585a;
      }
    </style>
  </defs>
  <g id="Layer_1-2" data-name="Layer 1">
    <g>
      <path class="cls-1" d="M29.74,7.72c9.43,0,18.87-.04,28.3.03,3.12.02,6.27-.03,9.3,1.03,5.95,2.08,10.5,5.67,12.78,11.72.5,1.32.77,2.7.81,4.14.15,5.52.2,11.05.08,16.57-.07,3.44.12,6.88.07,10.32,0,.71-.17,1-.94,1-4.24-.03-8.48-.02-12.72,0-.68,0-.94-.17-.94-.91.03-8.89,0-17.79.05-26.68.03-6.02-4.89-11.78-10.86-12.71-1.4-.22-2.76-.02-4.15-.02-6.48.01-12.95,0-19.43,0-4.68,0-9.36-.02-14.03.05-2.29.04-2.01-.01-1.83,1.98.03.28.02.56.02.85,0,12.08.01,24.16.02,36.24,0,1.14,0,1.15-1.14,1.15-4.73,0-9.46,0-14.19.03C.2,52.53,0,52.27,0,51.55c.02-14.26.01-28.53.01-42.79,0-1.01.02-1.02,1.04-1.03.08,0,.15,0,.23,0,9.48,0,18.97,0,28.45,0Z"/>
      <path class="cls-1" d="M206.68,7.72c3.98,0,7.97.02,11.95-.01.75,0,1.06.17.99.98-.08,1-.06,2-.03,3.01.03.74-.27.99-.99.99-3.39-.02-6.78-.01-10.18,0-2.47,0-4.94-.06-7.4.04-5.82.25-10.45,2.76-13.76,7.58-1.23,1.79-1.74,3.88-2.04,6.01-.38,2.72-.26,5.44.21,8.13.82,4.7,3.64,7.95,7.72,10.19,2.62,1.44,5.46,2.07,8.44,2.07,17.5,0,35.01,0,52.51,0,.26,0,.51.01.77,0,.45-.02.66.19.65.65-.01,1.44-.02,2.88-.01,4.32,0,.47-.24.67-.67.62-2.51-.26-5.03-.06-7.54-.21-2.15-.13-4.32-.06-6.47-.06-13.96,0-27.91,0-41.87,0-2.9,0-5.82.11-8.68-.47-8.98-1.81-15.58-6.67-18.6-15.49-2.38-6.96-.9-13.48,3.74-19.16,4.26-5.22,9.93-7.99,16.55-8.94,2.76-.39,5.54-.23,8.31-.25,2.13-.02,4.27,0,6.4,0Z"/>
      <path class="cls-4" d="M293.02,6.77c5.12.07,9.95,1.17,14.21,4.14,4.83,3.35,7.65,8.03,8.73,13.76.82,4.36.6,8.7-.73,12.95-2.01,6.42-6.26,10.8-12.37,13.45-3.5,1.52-7.18,2.21-10.97,2.14-6.48-.12-12.29-2.08-16.93-6.8-3.32-3.38-5.2-7.49-5.84-12.16-.7-5.1-.25-10.07,2.01-14.76,3.1-6.43,8.33-10.21,15.16-11.93,2.2-.55,4.45-.8,6.72-.79ZM307.18,29.42c.06-1.93-.32-4.26-1.14-6.5-2-5.46-5.55-9.13-11.6-9.8-5.82-.65-11.14,1.72-14.04,7.15-2.14,4.02-2.75,8.32-2.14,12.78.56,4.12,2.15,7.76,5.34,10.56,5.88,5.16,15.02,4.27,19.81-1.93,2.69-3.48,3.81-7.46,3.78-12.26Z"/>
      <path class="cls-4" d="M139.32,8.01c6.38,0,12.75,0,19.13,0,1.12,0,1.12,0,1.12,1.11,0,1.39-.03,2.78.01,4.16.02.72-.26.93-.94.93-4.55-.02-9.1-.01-13.65,0q-1.14,0-1.14,1.16c0,11.9,0,23.8,0,35.71q0,1.25-1.21,1.25c-2.54,0-5.09,0-7.63,0-1.05,0-1.07-.02-1.07-1.09,0-11.83,0-23.65,0-35.48,0-.23-.02-.47,0-.69.08-.7-.26-.89-.91-.87-1.1.04-2.21,0-3.32,0-3.26,0-6.53-.02-9.79.01-.73,0-1-.23-.97-.98.05-1.41.05-2.83,0-4.24-.03-.79.26-1.01,1.02-1,6.45.02,12.9.01,19.36.01Z"/>
      <path class="cls-4" d="M104.36,30.21c0,7.01,0,14.03,0,21.04,0,1.06-.02,1.07-1.08,1.08-2.54,0-5.09,0-7.63,0q-1.2,0-1.21-1.18c0-12.28,0-24.56,0-36.85,0-1.77.02-3.55-.01-5.32-.01-.71.26-.95.95-.94,2.67.02,5.34.03,8.02,0,.73,0,.98.23.97.98-.02,7.07-.01,14.13-.01,21.2Z"/>
      <path class="cls-2" d="M229.22,10.09c.08-3.25,1.63-5.73,4.16-7.63,4.92-3.69,11.67-3.32,15.9,1.78,3.45,4.16,2.93,8.7-1,12.44-4.8,4.56-13.48,3.63-17.4-1.71-1.06-1.45-1.68-3.05-1.65-4.88Z"/>
      <g>
        <path class="cls-3" d="M139.94,75.43h-3.81l-.75,1.76h-1.46l3.43-7.62h1.39l3.44,7.62h-1.48l-.76-1.76ZM139.48,74.32l-1.44-3.33-1.43,3.33h2.86Z"/>
        <path class="cls-3" d="M143.16,69.58h1.42v7.62h-1.42v-7.62Z"/>
        <path class="cls-3" d="M146.21,73.61h2.99v1.13h-2.99v-1.13Z"/>
        <path class="cls-3" d="M150.82,69.58h3.33c2.47,0,4.16,1.52,4.16,3.81s-1.69,3.81-4.16,3.81h-3.33v-7.62ZM154.09,76c1.7,0,2.8-1.03,2.8-2.61s-1.1-2.61-2.8-2.61h-1.85v5.23h1.85Z"/>
        <path class="cls-3" d="M163.05,71.32v1.3c-.12-.02-.22-.03-.32-.03-1.03,0-1.69.61-1.69,1.8v2.82h-1.36v-5.81h1.3v.85c.39-.61,1.1-.91,2.07-.91Z"/>
        <path class="cls-3" d="M164.02,69.61c0-.46.37-.82.87-.82s.87.34.87.78c0,.48-.36.85-.87.85s-.87-.36-.87-.82ZM164.21,71.38h1.36v5.81h-1.36v-5.81Z"/>
        <path class="cls-3" d="M172.8,71.38l-2.49,5.81h-1.4l-2.49-5.81h1.42l1.81,4.31,1.86-4.31h1.31Z"/>
        <path class="cls-3" d="M178.93,74.73h-4.56c.16.85.87,1.39,1.88,1.39.65,0,1.17-.21,1.58-.63l.73.84c-.52.62-1.34.95-2.34.95-1.95,0-3.21-1.25-3.21-2.98s1.27-2.97,3.01-2.97,2.94,1.19,2.94,3.01c0,.11-.01.27-.02.4ZM174.36,73.82h3.3c-.11-.84-.75-1.42-1.64-1.42s-1.52.57-1.65,1.42Z"/>
        <path class="cls-3" d="M185.99,73.87v3.33h-1.36v-3.16c0-1.03-.51-1.54-1.38-1.54-.97,0-1.62.59-1.62,1.75v2.94h-1.36v-5.81h1.3v.75c.45-.53,1.15-.82,2-.82,1.39,0,2.43.8,2.43,2.55Z"/>
        <path class="cls-3" d="M190.86,69.58h3.33c2.47,0,4.16,1.52,4.16,3.81s-1.69,3.81-4.16,3.81h-3.33v-7.62ZM194.12,76c1.7,0,2.8-1.03,2.8-2.61s-1.1-2.61-2.8-2.61h-1.85v5.23h1.85Z"/>
        <path class="cls-3" d="M199.54,69.61c0-.46.37-.82.87-.82s.87.34.87.78c0,.48-.36.85-.87.85s-.87-.36-.87-.82ZM199.72,71.38h1.36v5.81h-1.36v-5.81Z"/>
        <path class="cls-3" d="M208.64,71.38v4.93c0,2.11-1.1,3.07-3.14,3.07-1.09,0-2.17-.28-2.83-.83l.61-1.02c.51.42,1.34.7,2.15.7,1.28,0,1.85-.59,1.85-1.76v-.3c-.48.52-1.17.77-1.95.77-1.67,0-2.94-1.13-2.94-2.82s1.27-2.8,2.94-2.8c.82,0,1.54.26,2.01.84v-.77h1.3ZM207.3,74.12c0-.98-.74-1.64-1.76-1.64s-1.78.66-1.78,1.64.74,1.67,1.78,1.67,1.76-.68,1.76-1.67Z"/>
        <path class="cls-3" d="M210.24,69.61c0-.46.37-.82.87-.82s.87.34.87.78c0,.48-.36.85-.87.85s-.87-.36-.87-.82ZM210.43,71.38h1.36v5.81h-1.36v-5.81Z"/>
        <path class="cls-3" d="M217.07,76.88c-.33.26-.82.39-1.31.39-1.27,0-2-.67-2-1.96v-2.8h-.96v-1.09h.96v-1.33h1.36v1.33h1.56v1.09h-1.56v2.77c0,.57.28.87.81.87.28,0,.56-.08.76-.24l.38.97Z"/>
        <path class="cls-3" d="M223.06,73.79v3.41h-1.29v-.71c-.33.5-.96.78-1.83.78-1.33,0-2.17-.73-2.17-1.74s.65-1.73,2.42-1.73h1.5v-.09c0-.8-.48-1.26-1.45-1.26-.65,0-1.33.22-1.76.58l-.53-.99c.62-.48,1.52-.72,2.46-.72,1.68,0,2.65.8,2.65,2.47ZM221.7,75.38v-.68h-1.4c-.93,0-1.18.35-1.18.77,0,.49.41.81,1.11.81s1.24-.31,1.47-.9Z"/>
        <path class="cls-3" d="M224.8,69.12h1.36v8.08h-1.36v-8.08Z"/>
        <path class="cls-3" d="M232.63,70.77h-2.53v-1.2h6.47v1.2h-2.53v6.42h-1.42v-6.42Z"/>
        <path class="cls-3" d="M240.74,71.32v1.3c-.12-.02-.22-.03-.32-.03-1.03,0-1.69.61-1.69,1.8v2.82h-1.36v-5.81h1.3v.85c.39-.61,1.1-.91,2.07-.91Z"/>
        <path class="cls-3" d="M246.73,73.79v3.41h-1.29v-.71c-.33.5-.96.78-1.83.78-1.33,0-2.17-.73-2.17-1.74s.65-1.73,2.42-1.73h1.5v-.09c0-.8-.48-1.26-1.45-1.26-.65,0-1.33.22-1.76.58l-.53-.99c.62-.48,1.52-.72,2.46-.72,1.68,0,2.65.8,2.65,2.47ZM245.36,75.38v-.68h-1.4c-.93,0-1.18.35-1.18.77,0,.49.41.81,1.11.81s1.24-.31,1.47-.9Z"/>
        <path class="cls-3" d="M254.2,73.87v3.33h-1.36v-3.16c0-1.03-.51-1.54-1.38-1.54-.97,0-1.62.59-1.62,1.75v2.94h-1.36v-5.81h1.3v.75c.45-.53,1.15-.82,2-.82,1.39,0,2.43.8,2.43,2.55Z"/>
        <path class="cls-3" d="M255.26,76.62l.52-1.03c.51.34,1.3.58,2.03.58.86,0,1.22-.24,1.22-.64,0-1.11-3.59-.07-3.59-2.38,0-1.1.99-1.82,2.56-1.82.77,0,1.65.19,2.18.5l-.52,1.03c-.56-.33-1.11-.44-1.67-.44-.83,0-1.22.27-1.22.65,0,1.18,3.59.13,3.59,2.41,0,1.09-1,1.8-2.63,1.8-.97,0-1.94-.28-2.46-.65Z"/>
        <path class="cls-3" d="M263.04,71.08v.35h1.6v1.09h-1.56v4.68h-1.36v-4.68h-.96v-1.09h.96v-.37c0-1.22.73-2.01,2.08-2.01.47,0,.93.1,1.23.32l-.38,1.02c-.21-.14-.47-.24-.75-.24-.57,0-.86.32-.86.94Z"/>
        <path class="cls-3" d="M264.99,74.29c0-1.74,1.31-2.97,3.09-2.97s3.1,1.23,3.1,2.97-1.3,2.98-3.1,2.98-3.09-1.24-3.09-2.98ZM269.81,74.29c0-1.11-.74-1.82-1.73-1.82s-1.72.71-1.72,1.82.74,1.82,1.72,1.82,1.73-.71,1.73-1.82Z"/>
        <path class="cls-3" d="M275.86,71.32v1.3c-.12-.02-.22-.03-.32-.03-1.03,0-1.69.61-1.69,1.8v2.82h-1.36v-5.81h1.3v.85c.39-.61,1.1-.91,2.07-.91Z"/>
        <path class="cls-3" d="M286.74,73.87v3.33h-1.36v-3.16c0-1.03-.48-1.54-1.31-1.54-.89,0-1.51.59-1.51,1.74v2.95h-1.36v-3.16c0-1.03-.48-1.54-1.31-1.54-.9,0-1.51.59-1.51,1.74v2.95h-1.36v-5.81h1.3v.74c.44-.52,1.11-.81,1.91-.81.85,0,1.56.32,1.96.97.47-.6,1.25-.97,2.18-.97,1.4,0,2.38.8,2.38,2.55Z"/>
        <path class="cls-3" d="M293.35,73.79v3.41h-1.29v-.71c-.33.5-.96.78-1.83.78-1.33,0-2.17-.73-2.17-1.74s.65-1.73,2.42-1.73h1.5v-.09c0-.8-.48-1.26-1.45-1.26-.65,0-1.33.22-1.76.58l-.53-.99c.62-.48,1.52-.72,2.46-.72,1.68,0,2.65.8,2.65,2.47ZM291.99,75.38v-.68h-1.4c-.93,0-1.18.35-1.18.77,0,.49.41.81,1.11.81s1.24-.31,1.47-.9Z"/>
        <path class="cls-3" d="M298.59,76.88c-.33.26-.82.39-1.31.39-1.27,0-2-.67-2-1.96v-2.8h-.96v-1.09h.96v-1.33h1.36v1.33h1.56v1.09h-1.56v2.77c0,.57.28.87.81.87.28,0,.56-.08.76-.24l.38.97Z"/>
        <path class="cls-3" d="M299.52,69.61c0-.46.37-.82.87-.82s.87.34.87.78c0,.48-.36.85-.87.85s-.87-.36-.87-.82ZM299.71,71.38h1.36v5.81h-1.36v-5.81Z"/>
        <path class="cls-3" d="M302.38,74.29c0-1.74,1.31-2.97,3.09-2.97s3.1,1.23,3.1,2.97-1.3,2.98-3.1,2.98-3.09-1.24-3.09-2.98ZM307.2,74.29c0-1.11-.74-1.82-1.73-1.82s-1.72.71-1.72,1.82.74,1.82,1.72,1.82,1.73-.71,1.73-1.82Z"/>
        <path class="cls-3" d="M315.61,73.87v3.33h-1.36v-3.16c0-1.03-.51-1.54-1.38-1.54-.97,0-1.62.59-1.62,1.75v2.94h-1.36v-5.81h1.3v.75c.45-.53,1.15-.82,2-.82,1.39,0,2.43.8,2.43,2.55Z"/>
      </g>
    </g>
  </g>
</svg>