<?xml version="1.0" encoding="UTF-8"?>
<svg id="Layer_2" data-name="Layer 2" xmlns="http://www.w3.org/2000/svg" viewBox="0 0 420.37 112.01">
  <defs>
    <style>
      .cls-1 {
        fill: #fff;
      }

      .cls-2 {
        fill: #ec1e52;
      }
    </style>
  </defs>
  <g id="Layer_1-2" data-name="Layer 1">
    <g>
      <path class="cls-1" d="M135.17,105.63h-6.16l-1.21,2.85h-2.36l5.54-12.32h2.25l5.56,12.32h-2.39l-1.23-2.85ZM134.42,103.83l-2.32-5.38-2.3,5.38h4.63Z"/>
      <path class="cls-1" d="M140.37,96.16h2.29v12.32h-2.29v-12.32Z"/>
      <path class="cls-1" d="M145.3,102.67h4.84v1.83h-4.84v-1.83Z"/>
      <path class="cls-1" d="M152.76,96.16h5.38c3.99,0,6.72,2.46,6.72,6.16s-2.73,6.16-6.72,6.16h-5.38v-12.32ZM158.03,106.54c2.75,0,4.52-1.67,4.52-4.22s-1.78-4.22-4.52-4.22h-2.99v8.44h2.99Z"/>
      <path class="cls-1" d="M172.52,98.98v2.09c-.19-.04-.35-.05-.51-.05-1.67,0-2.73.99-2.73,2.9v4.56h-2.2v-9.4h2.09v1.37c.63-.99,1.78-1.48,3.34-1.48Z"/>
      <path class="cls-1" d="M174.17,96.21c0-.74.6-1.32,1.41-1.32s1.41.55,1.41,1.27c0,.77-.58,1.37-1.41,1.37s-1.41-.58-1.41-1.32ZM174.47,99.08h2.2v9.4h-2.2v-9.4Z"/>
      <path class="cls-1" d="M188.35,99.08l-4.03,9.4h-2.27l-4.03-9.4h2.29l2.92,6.97,3.01-6.97h2.11Z"/>
      <path class="cls-1" d="M198.52,104.48h-7.37c.26,1.37,1.41,2.25,3.04,2.25,1.06,0,1.88-.33,2.55-1.02l1.18,1.35c-.84,1-2.16,1.53-3.78,1.53-3.15,0-5.19-2.02-5.19-4.82s2.06-4.8,4.86-4.8,4.75,1.92,4.75,4.86c0,.18-.02.44-.04.65ZM191.13,103.02h5.33c-.18-1.35-1.21-2.29-2.66-2.29s-2.46.92-2.67,2.29Z"/>
      <path class="cls-1" d="M209.93,103.09v5.38h-2.2v-5.1c0-1.67-.83-2.48-2.23-2.48-1.57,0-2.62.95-2.62,2.83v4.75h-2.2v-9.4h2.09v1.21c.72-.86,1.87-1.32,3.24-1.32,2.25,0,3.92,1.28,3.92,4.12Z"/>
      <path class="cls-1" d="M217.79,96.16h5.38c3.99,0,6.72,2.46,6.72,6.16s-2.73,6.16-6.72,6.16h-5.38v-12.32ZM223.07,106.54c2.75,0,4.52-1.67,4.52-4.22s-1.78-4.22-4.52-4.22h-2.99v8.44h2.99Z"/>
      <path class="cls-1" d="M231.82,96.21c0-.74.6-1.32,1.41-1.32s1.41.55,1.41,1.27c0,.77-.58,1.37-1.41,1.37s-1.41-.58-1.41-1.32ZM232.12,99.08h2.2v9.4h-2.2v-9.4Z"/>
      <path class="cls-1" d="M246.53,99.08v7.97c0,3.41-1.78,4.96-5.07,4.96-1.76,0-3.5-.46-4.57-1.34l.99-1.65c.83.69,2.16,1.13,3.47,1.13,2.08,0,2.99-.95,2.99-2.85v-.49c-.77.84-1.88,1.25-3.15,1.25-2.69,0-4.75-1.83-4.75-4.56s2.06-4.52,4.75-4.52c1.32,0,2.48.42,3.25,1.35v-1.25h2.09ZM244.37,103.5c0-1.58-1.2-2.66-2.85-2.66s-2.87,1.07-2.87,2.66,1.2,2.69,2.87,2.69,2.85-1.09,2.85-2.69Z"/>
      <path class="cls-1" d="M249.12,96.21c0-.74.6-1.32,1.41-1.32s1.41.55,1.41,1.27c0,.77-.58,1.37-1.41,1.37s-1.41-.58-1.41-1.32ZM249.42,99.08h2.2v9.4h-2.2v-9.4Z"/>
      <path class="cls-1" d="M260.15,107.97c-.53.42-1.32.63-2.11.63-2.06,0-3.24-1.09-3.24-3.17v-4.52h-1.55v-1.76h1.55v-2.15h2.2v2.15h2.52v1.76h-2.52v4.47c0,.91.46,1.41,1.3,1.41.46,0,.9-.12,1.23-.39l.62,1.57Z"/>
      <path class="cls-1" d="M269.83,102.97v5.51h-2.08v-1.14c-.53.81-1.55,1.27-2.96,1.27-2.15,0-3.5-1.18-3.5-2.81s1.06-2.8,3.91-2.8h2.43v-.14c0-1.28-.77-2.04-2.34-2.04-1.06,0-2.15.35-2.85.93l-.86-1.6c1-.77,2.46-1.16,3.98-1.16,2.71,0,4.28,1.28,4.28,3.99ZM267.63,105.54v-1.09h-2.27c-1.5,0-1.9.56-1.9,1.25,0,.79.67,1.3,1.79,1.3s2.01-.49,2.38-1.46Z"/>
      <path class="cls-1" d="M272.64,95.42h2.2v13.05h-2.2v-13.05Z"/>
      <path class="cls-1" d="M285.3,98.1h-4.08v-1.94h10.45v1.94h-4.08v10.38h-2.29v-10.38Z"/>
      <path class="cls-1" d="M298.62,98.98v2.09c-.19-.04-.35-.05-.51-.05-1.67,0-2.73.99-2.73,2.9v4.56h-2.2v-9.4h2.09v1.37c.63-.99,1.78-1.48,3.34-1.48Z"/>
      <path class="cls-1" d="M308.43,102.97v5.51h-2.08v-1.14c-.53.81-1.55,1.27-2.96,1.27-2.15,0-3.5-1.18-3.5-2.81s1.06-2.8,3.91-2.8h2.43v-.14c0-1.28-.77-2.04-2.34-2.04-1.06,0-2.15.35-2.85.93l-.86-1.6c1-.77,2.46-1.16,3.98-1.16,2.71,0,4.28,1.28,4.28,3.99ZM306.24,105.54v-1.09h-2.27c-1.5,0-1.9.56-1.9,1.25,0,.79.67,1.3,1.79,1.3s2.01-.49,2.38-1.46Z"/>
      <path class="cls-1" d="M320.51,103.09v5.38h-2.2v-5.1c0-1.67-.83-2.48-2.23-2.48-1.57,0-2.62.95-2.62,2.83v4.75h-2.2v-9.4h2.09v1.21c.72-.86,1.87-1.32,3.24-1.32,2.25,0,3.92,1.28,3.92,4.12Z"/>
      <path class="cls-1" d="M322.23,107.54l.84-1.67c.83.55,2.09.93,3.27.93,1.39,0,1.97-.39,1.97-1.04,0-1.79-5.81-.11-5.81-3.85,0-1.78,1.6-2.94,4.13-2.94,1.25,0,2.67.3,3.52.81l-.84,1.67c-.9-.53-1.79-.7-2.69-.7-1.34,0-1.97.44-1.97,1.06,0,1.9,5.81.21,5.81,3.89,0,1.76-1.62,2.9-4.26,2.9-1.57,0-3.13-.46-3.98-1.06Z"/>
      <path class="cls-1" d="M334.8,98.59v.56h2.59v1.76h-2.52v7.56h-2.2v-7.56h-1.55v-1.76h1.55v-.6c0-1.97,1.18-3.25,3.36-3.25.76,0,1.5.16,1.99.51l-.62,1.65c-.33-.23-.76-.39-1.21-.39-.92,0-1.39.51-1.39,1.51Z"/>
      <path class="cls-1" d="M338.09,103.78c0-2.81,2.11-4.8,5-4.8s5.01,1.99,5.01,4.8-2.09,4.82-5.01,4.82-5-2.01-5-4.82ZM345.88,103.78c0-1.79-1.2-2.94-2.8-2.94s-2.78,1.14-2.78,2.94,1.2,2.94,2.78,2.94,2.8-1.14,2.8-2.94Z"/>
      <path class="cls-1" d="M355.65,98.98v2.09c-.19-.04-.35-.05-.51-.05-1.67,0-2.73.99-2.73,2.9v4.56h-2.2v-9.4h2.09v1.37c.63-.99,1.78-1.48,3.34-1.48Z"/>
      <path class="cls-1" d="M373.31,103.09v5.38h-2.2v-5.1c0-1.67-.77-2.48-2.11-2.48-1.44,0-2.45.95-2.45,2.81v4.77h-2.2v-5.1c0-1.67-.77-2.48-2.11-2.48-1.46,0-2.45.95-2.45,2.81v4.77h-2.2v-9.4h2.09v1.2c.7-.84,1.79-1.3,3.08-1.3,1.37,0,2.52.51,3.17,1.57.76-.97,2.02-1.57,3.52-1.57,2.27,0,3.85,1.28,3.85,4.12Z"/>
      <path class="cls-1" d="M384,102.97v5.51h-2.08v-1.14c-.53.81-1.55,1.27-2.96,1.27-2.15,0-3.5-1.18-3.5-2.81s1.06-2.8,3.91-2.8h2.43v-.14c0-1.28-.77-2.04-2.34-2.04-1.06,0-2.15.35-2.85.93l-.86-1.6c1-.77,2.46-1.16,3.98-1.16,2.71,0,4.28,1.28,4.28,3.99ZM381.8,105.54v-1.09h-2.27c-1.5,0-1.9.56-1.9,1.25,0,.79.67,1.3,1.79,1.3s2.01-.49,2.38-1.46Z"/>
      <path class="cls-1" d="M392.46,107.97c-.53.42-1.32.63-2.11.63-2.06,0-3.24-1.09-3.24-3.17v-4.52h-1.55v-1.76h1.55v-2.15h2.2v2.15h2.52v1.76h-2.52v4.47c0,.91.46,1.41,1.3,1.41.46,0,.9-.12,1.23-.39l.62,1.57Z"/>
      <path class="cls-1" d="M393.98,96.21c0-.74.6-1.32,1.41-1.32s1.41.55,1.41,1.27c0,.77-.58,1.37-1.41,1.37s-1.41-.58-1.41-1.32ZM394.28,99.08h2.2v9.4h-2.2v-9.4Z"/>
      <path class="cls-1" d="M398.59,103.78c0-2.81,2.11-4.8,5-4.8s5.01,1.99,5.01,4.8-2.09,4.82-5.01,4.82-5-2.01-5-4.82ZM406.38,103.78c0-1.79-1.2-2.94-2.8-2.94s-2.78,1.14-2.78,2.94,1.2,2.94,2.78,2.94,2.8-1.14,2.8-2.94Z"/>
      <path class="cls-1" d="M419.97,103.09v5.38h-2.2v-5.1c0-1.67-.83-2.48-2.23-2.48-1.57,0-2.62.95-2.62,2.83v4.75h-2.2v-9.4h2.09v1.21c.72-.86,1.87-1.32,3.24-1.32,2.25,0,3.92,1.28,3.92,4.12Z"/>
    </g>
    <path class="cls-1" d="M39.51,10.26c12.53,0,25.06-.06,37.59.03,4.14.03,8.32-.04,12.35,1.37,7.9,2.76,13.94,7.53,16.98,15.56.67,1.76,1.03,3.59,1.08,5.5.2,7.34.27,14.68.11,22.01-.1,4.57.16,9.14.09,13.71-.01.94-.23,1.33-1.25,1.32-5.63-.04-11.27-.03-16.9,0-.9,0-1.25-.23-1.25-1.2.04-11.81.01-23.63.07-35.44.04-7.99-6.49-15.66-14.42-16.88-1.85-.29-3.67-.03-5.51-.03-8.6.01-17.21,0-25.81,0-6.21,0-12.43-.03-18.64.07-3.05.05-2.67-.02-2.42,2.63.03.37.02.75.02,1.13,0,16.05.02,32.09.03,48.14,0,1.52,0,1.53-1.52,1.53-6.28.01-12.56,0-18.85.04C.26,69.78,0,69.44,0,68.48.02,49.53.02,30.58.02,11.63c0-1.34.02-1.36,1.39-1.37.1,0,.2,0,.31,0,12.6,0,25.2,0,37.8,0Z"/>
    <path class="cls-1" d="M274.56,10.26c5.29,0,10.58.02,15.88-.02,1,0,1.41.22,1.31,1.31-.11,1.32-.08,2.66-.04,3.99.04.98-.35,1.32-1.32,1.31-4.51-.03-9.01-.02-13.52-.01-3.28,0-6.56-.08-9.83.06-7.74.33-13.88,3.67-18.27,10.07-1.63,2.38-2.31,5.16-2.7,7.98-.51,3.61-.35,7.23.28,10.8,1.1,6.24,4.84,10.56,10.26,13.54,3.48,1.92,7.25,2.75,11.21,2.75,23.25,0,46.5,0,69.75.01.34,0,.68.01,1.02,0,.6-.02.87.25.87.86-.02,1.91-.02,3.82-.01,5.74,0,.62-.32.89-.89.83-3.33-.35-6.68-.08-10.02-.29-2.86-.18-5.73-.08-8.6-.08-18.54,0-37.08,0-55.62,0-3.85,0-7.73.15-11.53-.62-11.93-2.4-20.7-8.87-24.71-20.57-3.16-9.24-1.2-17.9,4.96-25.45,5.66-6.94,13.19-10.62,21.98-11.87,3.67-.52,7.36-.31,11.04-.34,2.83-.02,5.67,0,8.5,0Z"/>
    <path class="cls-1" d="M389.26,8.99c6.8.09,13.21,1.56,18.88,5.49,6.42,4.46,10.16,10.67,11.59,18.28,1.09,5.8.8,11.56-.96,17.2-2.67,8.53-8.32,14.34-16.43,17.86-4.64,2.02-9.54,2.94-14.57,2.85-8.61-.16-16.33-2.76-22.49-9.04-4.4-4.49-6.91-9.95-7.76-16.16-.93-6.77-.33-13.38,2.67-19.6,4.11-8.54,11.07-13.57,20.14-15.85,2.92-.73,5.91-1.07,8.93-1.05ZM408.06,39.08c.08-2.57-.43-5.66-1.52-8.64-2.65-7.25-7.38-12.13-15.41-13.03-7.73-.86-14.8,2.28-18.66,9.5-2.85,5.34-3.65,11.05-2.85,16.98.74,5.47,2.85,10.31,7.09,14.03,7.81,6.86,19.96,5.67,26.31-2.56,3.57-4.62,5.05-9.91,5.03-16.29Z"/>
    <path class="cls-1" d="M185.08,10.64c8.47,0,16.94,0,25.41,0,1.48,0,1.49,0,1.49,1.48,0,1.84-.04,3.69.02,5.53.03.96-.34,1.24-1.25,1.24-6.04-.03-12.09-.01-18.13-.01q-1.51,0-1.51,1.54c0,15.81,0,31.62,0,47.43q0,1.66-1.61,1.66c-3.38,0-6.76,0-10.14,0-1.4,0-1.42-.02-1.42-1.45,0-15.71,0-31.42,0-47.13,0-.31-.03-.62,0-.92.1-.93-.35-1.18-1.21-1.15-1.47.05-2.94.01-4.4.01-4.34,0-8.67-.02-13.01.02-.98,0-1.33-.31-1.29-1.3.06-1.88.07-3.76,0-5.63-.04-1.05.34-1.34,1.36-1.33,8.57.03,17.14.02,25.71.02Z"/>
    <path class="cls-1" d="M138.63,40.13c0,9.32,0,18.64,0,27.96,0,1.41-.02,1.43-1.43,1.43-3.38,0-6.76,0-10.14,0q-1.6,0-1.6-1.57c0-16.32,0-32.63,0-48.95,0-2.36.03-4.71-.01-7.07-.02-.94.34-1.26,1.26-1.25,3.55.03,7.1.04,10.65,0,.97-.01,1.3.31,1.3,1.3-.03,9.39-.02,18.77-.02,28.16Z"/>
    <path class="cls-2" d="M304.5,13.4c.1-4.32,2.17-7.62,5.52-10.13,6.54-4.9,15.5-4.41,21.12,2.36,4.59,5.53,3.9,11.56-1.33,16.53-6.38,6.06-17.91,4.82-23.12-2.27-1.41-1.92-2.24-4.05-2.19-6.49Z"/>
  </g>
</svg>